NotoSansThaiUI-Condensed.ufo
<glyph name="uni02BC" format="2">
  <advance width="189"/>
  <unicode hex="02BC"/>
  <outline>
    <contour>
      <point x="153" y="714" type="line"/>
      <point x="67" y="714" type="line"/>
      <point x="62" y="645"/>
      <point x="44" y="548"/>
      <point x="24" y="468" type="curve"/>
      <point x="87" y="468" type="line"/>
      <point x="118" y="543"/>
      <point x="142" y="620"/>
      <point x="160" y="703" type="curve"/>
    </contour>
  </outline>
</glyph>
<glyph name="tildecomb" format="2">
  <unicode hex="0303"/>
  <anchor x="-106" y="511" name="_top"/>
  <outline>
    <contour>
      <point x="-120" y="728" type="curve"/>
      <point x="-171" y="728" type="line"/>
      <point x="-176" y="693"/>
      <point x="-185" y="670"/>
      <point x="-204" y="670" type="curve" smooth="yes"/>
      <point x="-241" y="670"/>
      <point x="-280" y="727"/>
      <point x="-328" y="727" type="curve" smooth="yes"/>
      <point x="-383" y="727"/>
      <point x="-403" y="668"/>
      <point x="-409" y="605" type="curve"/>
      <point x="-359" y="605" type="line"/>
      <point x="-354" y="642"/>
      <point x="-340" y="664"/>
      <point x="-323" y="664" type="curve" smooth="yes"/>
      <point x="-293" y="664"/>
      <point x="-247" y="606"/>
      <point x="-200" y="606" type="curve" smooth="yes"/>
      <point x="-156" y="606"/>
      <point x="-125" y="649"/>
    </contour>
  </outline>
</glyph>
<glyph name="macronbelowcomb" format="2">
  <unicode hex="0331"/>
  <anchor x="-71" y="0" name="_bottom"/>
  <outline>
    <contour>
      <point x="-120" y="-91" type="line"/>
      <point x="-358" y="-91" type="line"/>
      <point x="-358" y="-153" type="line"/>
      <point x="-120" y="-153" type="line"/>
    </contour>
  </outline>
</glyph>
<glyph name="koKai-thai" format="2">
  <advance width="455"/>
  <unicode hex="0E01"/>
  <note>
uni0E01
</note>
  <anchor x="391" y="0" name="bottom"/>
  <anchor x="382" y="506" name="top"/>
  <outline>
    <contour>
      <point x="62" y="0" type="line"/>
      <point x="144" y="0" type="line"/>
      <point x="144" y="179" type="line" smooth="yes"/>
      <point x="144" y="246"/>
      <point x="169" y="275"/>
      <point x="204" y="277" type="curve"/>
      <point x="210" y="321" type="line"/>
      <point x="140" y="372" type="line"/>
      <point x="140" y="421"/>
      <point x="170" y="457"/>
      <point x="221" y="457" type="curve" smooth="yes"/>
      <point x="272" y="457"/>
      <point x="308" y="424"/>
      <point x="308" y="340" type="curve" smooth="yes"/>
      <point x="308" y="0" type="line"/>
      <point x="391" y="0" type="line"/>
      <point x="391" y="349" type="line" smooth="yes"/>
      <point x="391" y="474"/>
      <point x="319" y="527"/>
      <point x="223" y="527" type="curve" smooth="yes"/>
      <point x="116" y="527"/>
      <point x="55" y="454"/>
      <point x="55" y="377" type="curve" smooth="yes"/>
      <point x="55" y="346" type="line"/>
      <point x="132" y="306" type="line"/>
      <point x="131" y="303" type="line"/>
      <point x="89" y="290"/>
      <point x="62" y="260"/>
      <point x="62" y="180" type="curve" smooth="yes"/>
    </contour>
  </outline>
</glyph>
<glyph name="khoKhai-thai" format="2">
  <advance width="423"/>
  <unicode hex="0E02"/>
  <note>
uni0E02
</note>
  <anchor x="344" y="0" name="bottom"/>
  <anchor x="359" y="506" name="top"/>
  <outline>
    <contour>
      <point x="211" y="-10" type="curve" smooth="yes"/>
      <point x="308" y="-10"/>
      <point x="359" y="48"/>
      <point x="359" y="145" type="curve" smooth="yes"/>
      <point x="359" y="517" type="line"/>
      <point x="277" y="517" type="line"/>
      <point x="277" y="150" type="line" smooth="yes"/>
      <point x="277" y="88"/>
      <point x="255" y="59"/>
      <point x="212" y="59" type="curve" smooth="yes"/>
      <point x="174" y="59"/>
      <point x="145" y="80"/>
      <point x="145" y="168" type="curve" smooth="yes"/>
      <point x="145" y="224" type="line" smooth="yes"/>
      <point x="145" y="270"/>
      <point x="156" y="295"/>
      <point x="170" y="326" type="curve" smooth="yes"/>
      <point x="183" y="355"/>
      <point x="198" y="382"/>
      <point x="198" y="428" type="curve" smooth="yes"/>
      <point x="198" y="483"/>
      <point x="176" y="523"/>
      <point x="119" y="523" type="curve" smooth="yes"/>
      <point x="97" y="523"/>
      <point x="67" y="518"/>
      <point x="46" y="502" type="curve"/>
      <point x="62" y="442" type="line"/>
      <point x="73" y="450"/>
      <point x="85" y="455"/>
      <point x="96" y="455" type="curve" smooth="yes"/>
      <point x="110" y="455"/>
      <point x="120" y="445"/>
      <point x="120" y="418" type="curve" smooth="yes"/>
      <point x="120" y="389"/>
      <point x="108" y="371"/>
      <point x="92" y="343" type="curve" smooth="yes"/>
      <point x="77" y="317"/>
      <point x="63" y="283"/>
      <point x="63" y="220" type="curve" smooth="yes"/>
      <point x="63" y="162" type="line" smooth="yes"/>
      <point x="63" y="48"/>
      <point x="115" y="-10"/>
    </contour>
  </outline>
</glyph>
<glyph name="khoKhuat-thai" format="2">
  <advance width="426"/>
  <unicode hex="0E03"/>
  <anchor x="346" y="0" name="bottom"/>
  <anchor x="362" y="506" name="top"/>
  <outline>
    <contour>
      <point x="212" y="-10" type="curve" smooth="yes"/>
      <point x="310" y="-10"/>
      <point x="362" y="48"/>
      <point x="362" y="145" type="curve" smooth="yes"/>
      <point x="362" y="517" type="line"/>
      <point x="280" y="517" type="line"/>
      <point x="280" y="150" type="line" smooth="yes"/>
      <point x="280" y="88"/>
      <point x="257" y="59"/>
      <point x="212" y="59" type="curve" smooth="yes"/>
      <point x="175" y="59"/>
      <point x="145" y="78"/>
      <point x="145" y="168" type="curve" smooth="yes"/>
      <point x="145" y="221" type="line" smooth="yes"/>
      <point x="145" y="287"/>
      <point x="163" y="305"/>
      <point x="183" y="342" type="curve" smooth="yes"/>
      <point x="211" y="393"/>
      <point x="212" y="419"/>
      <point x="212" y="476" type="curve" smooth="yes"/>
      <point x="212" y="517" type="line"/>
      <point x="168" y="517" type="line"/>
      <point x="155" y="479" type="line"/>
      <point x="146" y="469"/>
      <point x="135" y="463"/>
      <point x="126" y="463" type="curve" smooth="yes"/>
      <point x="111" y="463"/>
      <point x="104" y="480"/>
      <point x="104" y="517" type="curve"/>
      <point x="40" y="517" type="line"/>
      <point x="40" y="498" type="line" smooth="yes"/>
      <point x="40" y="441"/>
      <point x="64" y="410"/>
      <point x="99" y="410" type="curve" smooth="yes"/>
      <point x="113" y="410"/>
      <point x="125" y="416"/>
      <point x="135" y="427" type="curve"/>
      <point x="137" y="425" type="line"/>
      <point x="136" y="406"/>
      <point x="124" y="390"/>
      <point x="110" y="368" type="curve" smooth="yes"/>
      <point x="85" y="330"/>
      <point x="63" y="297"/>
      <point x="63" y="223" type="curve" smooth="yes"/>
      <point x="63" y="163" type="line" smooth="yes"/>
      <point x="63" y="48"/>
      <point x="113" y="-10"/>
    </contour>
  </outline>
</glyph>
<glyph name="khoKhwai-thai" format="2">
  <advance width="465"/>
  <unicode hex="0E04"/>
  <note>
uni0E04
</note>
  <anchor x="401" y="0" name="bottom"/>
  <anchor x="392" y="506" name="top"/>
  <outline>
    <contour>
      <point x="64" y="0" type="line"/>
      <point x="146" y="0" type="line"/>
      <point x="146" y="100" type="line" smooth="yes"/>
      <point x="146" y="163"/>
      <point x="162" y="216"/>
      <point x="242" y="216" type="curve" smooth="yes"/>
      <point x="262" y="216" type="line"/>
      <point x="262" y="285" type="line"/>
      <point x="242" y="285" type="line" smooth="yes"/>
      <point x="192" y="285"/>
      <point x="167" y="274"/>
      <point x="148" y="225" type="curve"/>
      <point x="146" y="226" type="line"/>
      <point x="146" y="331" type="line" smooth="yes"/>
      <point x="146" y="415"/>
      <point x="174" y="457"/>
      <point x="232" y="457" type="curve" smooth="yes"/>
      <point x="291" y="457"/>
      <point x="319" y="415"/>
      <point x="319" y="331" type="curve" smooth="yes"/>
      <point x="319" y="0" type="line"/>
      <point x="401" y="0" type="line"/>
      <point x="401" y="331" type="line" smooth="yes"/>
      <point x="401" y="457"/>
      <point x="351" y="527"/>
      <point x="233" y="527" type="curve" smooth="yes"/>
      <point x="115" y="527"/>
      <point x="64" y="457"/>
      <point x="64" y="331" type="curve" smooth="yes"/>
    </contour>
  </outline>
</glyph>
<glyph name="khoKhon-thai" format="2">
  <advance width="472"/>
  <unicode hex="0E05"/>
  <anchor x="407" y="0" name="bottom"/>
  <anchor x="398" y="506" name="top"/>
  <outline>
    <contour>
      <point x="64" y="0" type="line"/>
      <point x="146" y="0" type="line"/>
      <point x="146" y="100" type="line" smooth="yes"/>
      <point x="146" y="163"/>
      <point x="162" y="216"/>
      <point x="244" y="216" type="curve" smooth="yes"/>
      <point x="265" y="216" type="line"/>
      <point x="265" y="285" type="line"/>
      <point x="244" y="285" type="line" smooth="yes"/>
      <point x="192" y="285"/>
      <point x="166" y="274"/>
      <point x="147" y="225" type="curve"/>
      <point x="145" y="226" type="line"/>
      <point x="145" y="394" type="line" smooth="yes"/>
      <point x="145" y="442"/>
      <point x="159" y="457"/>
      <point x="179" y="457" type="curve" smooth="yes"/>
      <point x="201" y="457"/>
      <point x="212" y="440"/>
      <point x="215" y="400" type="curve"/>
      <point x="255" y="400" type="line"/>
      <point x="257" y="440"/>
      <point x="269" y="457"/>
      <point x="291" y="457" type="curve" smooth="yes"/>
      <point x="311" y="457"/>
      <point x="326" y="442"/>
      <point x="326" y="394" type="curve" smooth="yes"/>
      <point x="326" y="0" type="line"/>
      <point x="408" y="0" type="line"/>
      <point x="408" y="396" type="line" smooth="yes"/>
      <point x="408" y="485"/>
      <point x="371" y="527"/>
      <point x="310" y="527" type="curve" smooth="yes"/>
      <point x="274" y="527"/>
      <point x="246" y="513"/>
      <point x="237" y="478" type="curve"/>
      <point x="234" y="478" type="line"/>
      <point x="225" y="513"/>
      <point x="197" y="527"/>
      <point x="161" y="527" type="curve" smooth="yes"/>
      <point x="101" y="527"/>
      <point x="64" y="485"/>
      <point x="64" y="396" type="curve" smooth="yes"/>
    </contour>
  </outline>
</glyph>
<glyph name="khoRakhang-thai" format="2">
  <advance width="457"/>
  <unicode hex="0E06"/>
  <anchor x="381" y="0" name="bottom"/>
  <anchor x="395" y="506" name="top"/>
  <outline>
    <contour>
      <point x="264" y="-9" type="curve" smooth="yes"/>
      <point x="345" y="-9"/>
      <point x="393" y="46"/>
      <point x="393" y="171" type="curve" smooth="yes"/>
      <point x="393" y="517" type="line"/>
      <point x="311" y="517" type="line"/>
      <point x="311" y="177" type="line" smooth="yes"/>
      <point x="311" y="101"/>
      <point x="286" y="61"/>
      <point x="238" y="61" type="curve" smooth="yes"/>
      <point x="179" y="61"/>
      <point x="145" y="118"/>
      <point x="145" y="209" type="curve" smooth="yes"/>
      <point x="145" y="218" type="line" smooth="yes"/>
      <point x="145" y="284"/>
      <point x="162" y="302"/>
      <point x="183" y="342" type="curve" smooth="yes"/>
      <point x="212" y="396"/>
      <point x="215" y="420"/>
      <point x="215" y="476" type="curve" smooth="yes"/>
      <point x="215" y="517" type="line"/>
      <point x="169" y="517" type="line"/>
      <point x="157" y="479" type="line"/>
      <point x="148" y="469"/>
      <point x="136" y="463"/>
      <point x="127" y="463" type="curve" smooth="yes"/>
      <point x="112" y="463"/>
      <point x="106" y="480"/>
      <point x="106" y="517" type="curve"/>
      <point x="41" y="517" type="line"/>
      <point x="41" y="498" type="line" smooth="yes"/>
      <point x="41" y="441"/>
      <point x="65" y="410"/>
      <point x="100" y="410" type="curve" smooth="yes"/>
      <point x="114" y="410"/>
      <point x="126" y="416"/>
      <point x="136" y="427" type="curve"/>
      <point x="138" y="425" type="line"/>
      <point x="137" y="408"/>
      <point x="128" y="396"/>
      <point x="109" y="368" type="curve" smooth="yes"/>
      <point x="83" y="329"/>
      <point x="62" y="293"/>
      <point x="62" y="219" type="curve" smooth="yes"/>
      <point x="62" y="0" type="line"/>
      <point x="126" y="0" type="line"/>
      <point x="133" y="82" type="line"/>
      <point x="138" y="82" type="line"/>
      <point x="155" y="25"/>
      <point x="198" y="-9"/>
    </contour>
  </outline>
</glyph>
<glyph name="ngoNgu-thai" format="2">
  <advance width="410"/>
  <unicode hex="0E07"/>
  <note>
uni0E07
</note>
  <anchor x="301" y="0" name="bottom"/>
  <anchor x="332" y="506" name="top"/>
  <outline>
    <contour>
      <point x="128" y="0" type="line"/>
      <point x="172" y="0" type="line" smooth="yes"/>
      <point x="239" y="0"/>
      <point x="277" y="23"/>
      <point x="305" y="59" type="curve" smooth="yes"/>
      <point x="340" y="104"/>
      <point x="365" y="183"/>
      <point x="365" y="282" type="curve" smooth="yes"/>
      <point x="365" y="358"/>
      <point x="349" y="426"/>
      <point x="317" y="469" type="curve" smooth="yes"/>
      <point x="291" y="504"/>
      <point x="253" y="522"/>
      <point x="205" y="522" type="curve" smooth="yes"/>
      <point x="191" y="522"/>
      <point x="172" y="521"/>
      <point x="152" y="513" type="curve"/>
      <point x="169" y="446" type="line"/>
      <point x="176" y="450"/>
      <point x="186" y="453"/>
      <point x="197" y="453" type="curve" smooth="yes"/>
      <point x="250" y="453"/>
      <point x="283" y="389"/>
      <point x="283" y="284" type="curve" smooth="yes"/>
      <point x="283" y="222"/>
      <point x="271" y="153"/>
      <point x="247" y="111" type="curve" smooth="yes"/>
      <point x="234" y="88"/>
      <point x="216" y="73"/>
      <point x="196" y="73" type="curve" smooth="yes"/>
      <point x="190" y="73" type="line"/>
      <point x="93" y="517" type="line"/>
      <point x="10" y="517" type="line"/>
    </contour>
  </outline>
</glyph>
<glyph name="choChan-thai" format="2">
  <advance width="407"/>
  <unicode hex="0E08"/>
  <anchor x="326" y="0" name="bottom"/>
  <anchor x="337" y="506" name="top"/>
  <outline>
    <contour>
      <point x="104" y="0" type="line"/>
      <point x="178" y="0" type="line" smooth="yes"/>
      <point x="310" y="0"/>
      <point x="358" y="94"/>
      <point x="358" y="260" type="curve" smooth="yes"/>
      <point x="358" y="429"/>
      <point x="305" y="527"/>
      <point x="173" y="527" type="curve" smooth="yes"/>
      <point x="116" y="527"/>
      <point x="67" y="510"/>
      <point x="38" y="487" type="curve"/>
      <point x="38" y="409" type="line"/>
      <point x="73" y="442"/>
      <point x="113" y="457"/>
      <point x="160" y="457" type="curve" smooth="yes"/>
      <point x="240" y="457"/>
      <point x="274" y="401"/>
      <point x="274" y="261" type="curve" smooth="yes"/>
      <point x="274" y="120"/>
      <point x="244" y="68"/>
      <point x="188" y="68" type="curve" smooth="yes"/>
      <point x="181" y="68" type="line"/>
      <point x="181" y="296" type="line"/>
      <point x="57" y="296" type="line"/>
      <point x="57" y="231" type="line"/>
      <point x="104" y="231" type="line"/>
    </contour>
  </outline>
</glyph>
<glyph name="choChing-thai" format="2">
  <advance width="455"/>
  <unicode hex="0E09"/>
  <anchor x="391" y="0" name="bottom"/>
  <anchor x="384" y="506" name="top"/>
  <outline>
    <contour>
      <point x="193" y="-9" type="curve" smooth="yes"/>
      <point x="256" y="-9"/>
      <point x="298" y="26"/>
      <point x="315" y="76" type="curve"/>
      <point x="319" y="76" type="line"/>
      <point x="326" y="0" type="line"/>
      <point x="391" y="0" type="line"/>
      <point x="391" y="305" type="line" smooth="yes"/>
      <point x="391" y="450"/>
      <point x="340" y="527"/>
      <point x="217" y="527" type="curve" smooth="yes"/>
      <point x="157" y="527"/>
      <point x="103" y="509"/>
      <point x="74" y="487" type="curve"/>
      <point x="74" y="409" type="line"/>
      <point x="111" y="443"/>
      <point x="155" y="457"/>
      <point x="202" y="457" type="curve" smooth="yes"/>
      <point x="268" y="457"/>
      <point x="308" y="423"/>
      <point x="308" y="299" type="curve" smooth="yes"/>
      <point x="308" y="214" type="line" smooth="yes"/>
      <point x="308" y="122"/>
      <point x="274" y="61"/>
      <point x="217" y="61" type="curve" smooth="yes"/>
      <point x="170" y="61"/>
      <point x="146" y="101"/>
      <point x="146" y="171" type="curve" smooth="yes"/>
      <point x="146" y="296" type="line"/>
      <point x="66" y="296" type="line"/>
      <point x="66" y="165" type="line" smooth="yes"/>
      <point x="66" y="45"/>
      <point x="113" y="-9"/>
    </contour>
  </outline>
</glyph>
<glyph name="choChang-thai" format="2">
  <advance width="427"/>
  <unicode hex="0E0A"/>
  <anchor x="345" y="0" name="bottom"/>
  <anchor x="374" y="504" name="top"/>
  <outline>
    <contour>
      <point x="214" y="-10" type="curve" smooth="yes"/>
      <point x="311" y="-10"/>
      <point x="362" y="48"/>
      <point x="362" y="145" type="curve" smooth="yes"/>
      <point x="362" y="283" type="line" smooth="yes"/>
      <point x="362" y="319"/>
      <point x="355" y="364"/>
      <point x="319" y="378" type="curve"/>
      <point x="319" y="382" type="line"/>
      <point x="359" y="403"/>
      <point x="370" y="450"/>
      <point x="370" y="517" type="curve"/>
      <point x="288" y="517" type="line"/>
      <point x="288" y="473"/>
      <point x="285" y="408"/>
      <point x="233" y="408" type="curve" smooth="yes"/>
      <point x="229" y="408" type="line"/>
      <point x="229" y="355" type="line"/>
      <point x="233" y="355" type="line" smooth="yes"/>
      <point x="267" y="355"/>
      <point x="280" y="329"/>
      <point x="280" y="282" type="curve" smooth="yes"/>
      <point x="280" y="150" type="line" smooth="yes"/>
      <point x="280" y="88"/>
      <point x="259" y="59"/>
      <point x="214" y="59" type="curve" smooth="yes"/>
      <point x="175" y="59"/>
      <point x="146" y="80"/>
      <point x="146" y="168" type="curve" smooth="yes"/>
      <point x="146" y="224" type="line" smooth="yes"/>
      <point x="146" y="270"/>
      <point x="156" y="295"/>
      <point x="170" y="326" type="curve" smooth="yes"/>
      <point x="183" y="355"/>
      <point x="198" y="382"/>
      <point x="198" y="428" type="curve" smooth="yes"/>
      <point x="198" y="483"/>
      <point x="176" y="523"/>
      <point x="119" y="523" type="curve" smooth="yes"/>
      <point x="97" y="523"/>
      <point x="67" y="518"/>
      <point x="46" y="502" type="curve"/>
      <point x="62" y="442" type="line"/>
      <point x="73" y="450"/>
      <point x="85" y="455"/>
      <point x="96" y="455" type="curve" smooth="yes"/>
      <point x="110" y="455"/>
      <point x="120" y="445"/>
      <point x="120" y="418" type="curve" smooth="yes"/>
      <point x="120" y="389"/>
      <point x="108" y="371"/>
      <point x="92" y="343" type="curve" smooth="yes"/>
      <point x="77" y="317"/>
      <point x="64" y="283"/>
      <point x="64" y="220" type="curve" smooth="yes"/>
      <point x="64" y="162" type="line" smooth="yes"/>
      <point x="64" y="48"/>
      <point x="117" y="-10"/>
    </contour>
  </outline>
</glyph>
<glyph name="soSo-thai" format="2">
  <advance width="431"/>
  <unicode hex="0E0B"/>
  <note>
uni0E0B
</note>
  <anchor x="349" y="0" name="bottom"/>
  <anchor x="377" y="506" name="top"/>
  <outline>
    <contour>
      <point x="215" y="-10" type="curve" smooth="yes"/>
      <point x="313" y="-10"/>
      <point x="366" y="48"/>
      <point x="366" y="145" type="curve" smooth="yes"/>
      <point x="366" y="274" type="line" smooth="yes"/>
      <point x="366" y="328"/>
      <point x="356" y="365"/>
      <point x="322" y="380" type="curve"/>
      <point x="322" y="383" type="line"/>
      <point x="363" y="405"/>
      <point x="374" y="450"/>
      <point x="374" y="517" type="curve"/>
      <point x="292" y="517" type="line"/>
      <point x="292" y="473"/>
      <point x="289" y="408"/>
      <point x="238" y="408" type="curve" smooth="yes"/>
      <point x="235" y="408" type="line"/>
      <point x="235" y="355" type="line"/>
      <point x="238" y="355" type="line" smooth="yes"/>
      <point x="270" y="355"/>
      <point x="284" y="329"/>
      <point x="284" y="282" type="curve" smooth="yes"/>
      <point x="284" y="150" type="line" smooth="yes"/>
      <point x="284" y="88"/>
      <point x="261" y="59"/>
      <point x="215" y="59" type="curve" smooth="yes"/>
      <point x="177" y="59"/>
      <point x="147" y="78"/>
      <point x="147" y="168" type="curve" smooth="yes"/>
      <point x="147" y="230" type="line" smooth="yes"/>
      <point x="147" y="287"/>
      <point x="163" y="305"/>
      <point x="183" y="342" type="curve" smooth="yes"/>
      <point x="211" y="393"/>
      <point x="211" y="419"/>
      <point x="211" y="476" type="curve" smooth="yes"/>
      <point x="211" y="517" type="line"/>
      <point x="168" y="517" type="line"/>
      <point x="156" y="479" type="line"/>
      <point x="147" y="469"/>
      <point x="135" y="463"/>
      <point x="126" y="463" type="curve" smooth="yes"/>
      <point x="111" y="463"/>
      <point x="105" y="480"/>
      <point x="105" y="517" type="curve"/>
      <point x="40" y="517" type="line"/>
      <point x="40" y="498" type="line" smooth="yes"/>
      <point x="40" y="441"/>
      <point x="64" y="410"/>
      <point x="99" y="410" type="curve" smooth="yes"/>
      <point x="113" y="410"/>
      <point x="125" y="416"/>
      <point x="135" y="427" type="curve"/>
      <point x="137" y="425" type="line"/>
      <point x="136" y="406"/>
      <point x="124" y="390"/>
      <point x="110" y="368" type="curve" smooth="yes"/>
      <point x="85" y="330"/>
      <point x="65" y="297"/>
      <point x="65" y="223" type="curve" smooth="yes"/>
      <point x="65" y="163" type="line" smooth="yes"/>
      <point x="65" y="48"/>
      <point x="116" y="-10"/>
    </contour>
  </outline>
</glyph>
<glyph name="choChoe-thai" format="2">
  <advance width="669"/>
  <unicode hex="0E0C"/>
  <anchor x="590" y="0" name="bottom"/>
  <anchor x="605" y="506" name="top"/>
  <outline>
    <contour>
      <point x="151" y="-9" type="curve" smooth="yes"/>
      <point x="171" y="-9"/>
      <point x="191" y="-6"/>
      <point x="209" y="4" type="curve"/>
      <point x="199" y="66" type="line"/>
      <point x="192" y="62"/>
      <point x="182" y="59"/>
      <point x="174" y="59" type="curve" smooth="yes"/>
      <point x="153" y="59"/>
      <point x="144" y="70"/>
      <point x="144" y="100" type="curve" smooth="yes"/>
      <point x="144" y="182" type="line" smooth="yes"/>
      <point x="144" y="250"/>
      <point x="168" y="277"/>
      <point x="203" y="277" type="curve"/>
      <point x="210" y="322" type="line"/>
      <point x="138" y="373" type="line"/>
      <point x="139" y="426"/>
      <point x="169" y="457"/>
      <point x="216" y="457" type="curve" smooth="yes"/>
      <point x="260" y="457"/>
      <point x="296" y="429"/>
      <point x="296" y="341" type="curve" smooth="yes"/>
      <point x="296" y="0" type="line"/>
      <point x="361" y="0" type="line"/>
      <point x="368" y="82" type="line"/>
      <point x="373" y="82" type="line"/>
      <point x="389" y="25"/>
      <point x="431" y="-9"/>
      <point x="486" y="-9" type="curve" smooth="yes"/>
      <point x="561" y="-9"/>
      <point x="605" y="39"/>
      <point x="605" y="163" type="curve" smooth="yes"/>
      <point x="605" y="517" type="line"/>
      <point x="523" y="517" type="line"/>
      <point x="523" y="169" type="line" smooth="yes"/>
      <point x="523" y="93"/>
      <point x="498" y="61"/>
      <point x="460" y="61" type="curve" smooth="yes"/>
      <point x="412" y="61"/>
      <point x="378" y="122"/>
      <point x="378" y="214" type="curve" smooth="yes"/>
      <point x="378" y="349" type="line" smooth="yes"/>
      <point x="378" y="478"/>
      <point x="307" y="527"/>
      <point x="216" y="527" type="curve" smooth="yes"/>
      <point x="114" y="527"/>
      <point x="53" y="459"/>
      <point x="53" y="377" type="curve" smooth="yes"/>
      <point x="53" y="346" type="line"/>
      <point x="133" y="306" type="line"/>
      <point x="132" y="303" type="line"/>
      <point x="90" y="290"/>
      <point x="63" y="260"/>
      <point x="63" y="181" type="curve" smooth="yes"/>
      <point x="63" y="89" type="line" smooth="yes"/>
      <point x="63" y="12"/>
      <point x="102" y="-9"/>
    </contour>
  </outline>
</glyph>
<glyph name="yoYing-thai" format="2">
  <advance width="673"/>
  <unicode hex="0E0D"/>
  <anchor x="571" y="-152" name="bottom"/>
  <anchor x="603" y="506" name="top"/>
  <outline>
    <contour>
      <point x="434" y="-163" type="curve" smooth="yes"/>
      <point x="544" y="-163"/>
      <point x="603" y="-94"/>
      <point x="603" y="47" type="curve" smooth="yes"/>
      <point x="603" y="517" type="line"/>
      <point x="521" y="517" type="line"/>
      <point x="521" y="225" type="line" smooth="yes"/>
      <point x="521" y="132"/>
      <point x="488" y="71"/>
      <point x="438" y="71" type="curve" smooth="yes"/>
      <point x="402" y="71"/>
      <point x="376" y="103"/>
      <point x="376" y="179" type="curve" smooth="yes"/>
      <point x="376" y="349" type="line" smooth="yes"/>
      <point x="376" y="480"/>
      <point x="305" y="527"/>
      <point x="215" y="527" type="curve" smooth="yes"/>
      <point x="114" y="527"/>
      <point x="53" y="460"/>
      <point x="53" y="377" type="curve" smooth="yes"/>
      <point x="53" y="346" type="line"/>
      <point x="133" y="306" type="line"/>
      <point x="132" y="303" type="line"/>
      <point x="90" y="290"/>
      <point x="63" y="260"/>
      <point x="63" y="181" type="curve" smooth="yes"/>
      <point x="63" y="89" type="line" smooth="yes"/>
      <point x="63" y="12"/>
      <point x="102" y="-9"/>
      <point x="151" y="-9" type="curve" smooth="yes"/>
      <point x="171" y="-9"/>
      <point x="191" y="-6"/>
      <point x="209" y="4" type="curve"/>
      <point x="199" y="66" type="line"/>
      <point x="192" y="62"/>
      <point x="182" y="59"/>
      <point x="173" y="59" type="curve" smooth="yes"/>
      <point x="153" y="59"/>
      <point x="144" y="70"/>
      <point x="144" y="100" type="curve" smooth="yes"/>
      <point x="144" y="182" type="line" smooth="yes"/>
      <point x="144" y="250"/>
      <point x="168" y="277"/>
      <point x="203" y="277" type="curve"/>
      <point x="210" y="322" type="line"/>
      <point x="138" y="373" type="line"/>
      <point x="139" y="428"/>
      <point x="170" y="457"/>
      <point x="214" y="457" type="curve" smooth="yes"/>
      <point x="257" y="457"/>
      <point x="294" y="431"/>
      <point x="294" y="341" type="curve" smooth="yes"/>
      <point x="294" y="172" type="line" smooth="yes"/>
      <point x="294" y="48"/>
      <point x="344" y="1"/>
      <point x="413" y="1" type="curve" smooth="yes"/>
      <point x="466" y="1"/>
      <point x="501" y="30"/>
      <point x="520" y="70" type="curve"/>
      <point x="524" y="70" type="line"/>
      <point x="524" y="45" type="line" smooth="yes"/>
      <point x="524" y="-62"/>
      <point x="485" y="-91"/>
      <point x="426" y="-91" type="curve" smooth="yes"/>
      <point x="386" y="-91"/>
      <point x="342" y="-78"/>
      <point x="315" y="-51" type="curve"/>
      <point x="315" y="-131" type="line"/>
      <point x="351" y="-153"/>
      <point x="393" y="-163"/>
    </contour>
  </outline>
</glyph>
<glyph name="doChada-thai" format="2">
  <advance width="459"/>
  <unicode hex="0E0E"/>
  <anchor x="395" y="-178" name="bottom"/>
  <anchor x="382" y="506" name="top"/>
  <outline>
    <contour>
      <point x="80" y="-190" type="line"/>
      <point x="160" y="-190" type="line"/>
      <point x="160" y="-180" type="line" smooth="yes"/>
      <point x="160" y="-150"/>
      <point x="176" y="-123"/>
      <point x="214" y="-123" type="curve" smooth="yes"/>
      <point x="255" y="-123"/>
      <point x="305" y="-157"/>
      <point x="326" y="-190" type="curve"/>
      <point x="395" y="-190" type="line"/>
      <point x="395" y="349" type="line" smooth="yes"/>
      <point x="395" y="474"/>
      <point x="323" y="527"/>
      <point x="226" y="527" type="curve" smooth="yes"/>
      <point x="118" y="527"/>
      <point x="58" y="454"/>
      <point x="58" y="377" type="curve" smooth="yes"/>
      <point x="58" y="346" type="line"/>
      <point x="138" y="306" type="line"/>
      <point x="137" y="303" type="line"/>
      <point x="98" y="290"/>
      <point x="76" y="261"/>
      <point x="76" y="183" type="curve" smooth="yes"/>
      <point x="76" y="96" type="line" smooth="yes"/>
      <point x="76" y="70"/>
      <point x="70" y="58"/>
      <point x="55" y="58" type="curve" smooth="yes"/>
      <point x="47" y="58"/>
      <point x="40" y="61"/>
      <point x="34" y="64" type="curve"/>
      <point x="25" y="5" type="line"/>
      <point x="42" y="-5"/>
      <point x="60" y="-9"/>
      <point x="81" y="-9" type="curve" smooth="yes"/>
      <point x="125" y="-9"/>
      <point x="158" y="12"/>
      <point x="158" y="89" type="curve" smooth="yes"/>
      <point x="158" y="180" type="line" smooth="yes"/>
      <point x="158" y="248"/>
      <point x="177" y="277"/>
      <point x="208" y="277" type="curve"/>
      <point x="215" y="322" type="line"/>
      <point x="142" y="372" type="line"/>
      <point x="143" y="421"/>
      <point x="172" y="457"/>
      <point x="225" y="457" type="curve" smooth="yes"/>
      <point x="276" y="457"/>
      <point x="312" y="424"/>
      <point x="312" y="340" type="curve" smooth="yes"/>
      <point x="312" y="-138" type="line"/>
      <point x="332" y="-129" type="line"/>
      <point x="310" y="-92"/>
      <point x="257" y="-54"/>
      <point x="193" y="-54" type="curve" smooth="yes"/>
      <point x="121" y="-54"/>
      <point x="80" y="-101"/>
      <point x="80" y="-174" type="curve" smooth="yes"/>
    </contour>
  </outline>
</glyph>
<glyph name="toPatak-thai" format="2">
  <advance width="459"/>
  <unicode hex="0E0F"/>
  <anchor x="395" y="-178" name="bottom"/>
  <anchor x="382" y="506" name="top"/>
  <outline>
    <contour>
      <point x="59" y="-190" type="line"/>
      <point x="131" y="-190" type="line"/>
      <point x="131" y="-181" type="line" smooth="yes"/>
      <point x="131" y="-157"/>
      <point x="138" y="-128"/>
      <point x="163" y="-128" type="curve" smooth="yes"/>
      <point x="186" y="-128"/>
      <point x="202" y="-155"/>
      <point x="213" y="-190" type="curve"/>
      <point x="232" y="-190" type="line"/>
      <point x="273" y="-136" type="line"/>
      <point x="324" y="-190" type="line"/>
      <point x="395" y="-190" type="line"/>
      <point x="395" y="349" type="line" smooth="yes"/>
      <point x="395" y="474"/>
      <point x="323" y="527"/>
      <point x="226" y="527" type="curve" smooth="yes"/>
      <point x="118" y="527"/>
      <point x="58" y="454"/>
      <point x="58" y="377" type="curve" smooth="yes"/>
      <point x="58" y="346" type="line"/>
      <point x="138" y="306" type="line"/>
      <point x="137" y="303" type="line"/>
      <point x="98" y="290"/>
      <point x="76" y="261"/>
      <point x="76" y="183" type="curve" smooth="yes"/>
      <point x="76" y="96" type="line" smooth="yes"/>
      <point x="76" y="70"/>
      <point x="70" y="58"/>
      <point x="55" y="58" type="curve" smooth="yes"/>
      <point x="47" y="58"/>
      <point x="40" y="61"/>
      <point x="34" y="64" type="curve"/>
      <point x="25" y="5" type="line"/>
      <point x="42" y="-5"/>
      <point x="60" y="-9"/>
      <point x="81" y="-9" type="curve" smooth="yes"/>
      <point x="125" y="-9"/>
      <point x="158" y="12"/>
      <point x="158" y="89" type="curve" smooth="yes"/>
      <point x="158" y="180" type="line" smooth="yes"/>
      <point x="158" y="248"/>
      <point x="177" y="277"/>
      <point x="208" y="277" type="curve"/>
      <point x="215" y="322" type="line"/>
      <point x="142" y="372" type="line"/>
      <point x="143" y="421"/>
      <point x="172" y="457"/>
      <point x="225" y="457" type="curve" smooth="yes"/>
      <point x="276" y="457"/>
      <point x="312" y="424"/>
      <point x="312" y="340" type="curve" smooth="yes"/>
      <point x="312" y="-137" type="line"/>
      <point x="330" y="-132" type="line"/>
      <point x="269" y="-68" type="line"/>
      <point x="225" y="-119" type="line"/>
      <point x="211" y="-88"/>
      <point x="187" y="-63"/>
      <point x="146" y="-63" type="curve" smooth="yes"/>
      <point x="99" y="-63"/>
      <point x="59" y="-100"/>
      <point x="59" y="-166" type="curve" smooth="yes"/>
    </contour>
  </outline>
</glyph>
<glyph name="thoThan-thai" format="2">
  <advance width="417"/>
  <unicode hex="0E10"/>
  <anchor x="353" y="-178" name="bottom"/>
  <anchor x="351" y="506" name="top"/>
  <outline>
    <contour>
      <point x="103" y="0" type="line"/>
      <point x="177" y="0" type="line" smooth="yes"/>
      <point x="307" y="0"/>
      <point x="357" y="94"/>
      <point x="357" y="259" type="curve" smooth="yes"/>
      <point x="357" y="354"/>
      <point x="337" y="425"/>
      <point x="296" y="465" type="curve"/>
      <point x="277" y="507"/>
      <point x="233" y="527"/>
      <point x="173" y="527" type="curve" smooth="yes"/>
      <point x="115" y="527"/>
      <point x="66" y="510"/>
      <point x="37" y="487" type="curve"/>
      <point x="37" y="409" type="line"/>
      <point x="72" y="442"/>
      <point x="112" y="457"/>
      <point x="159" y="457" type="curve" smooth="yes"/>
      <point x="239" y="457"/>
      <point x="273" y="401"/>
      <point x="273" y="261" type="curve" smooth="yes"/>
      <point x="273" y="120"/>
      <point x="243" y="68"/>
      <point x="187" y="68" type="curve" smooth="yes"/>
      <point x="180" y="68" type="line"/>
      <point x="180" y="296" type="line"/>
      <point x="56" y="296" type="line"/>
      <point x="56" y="231" type="line"/>
      <point x="103" y="231" type="line"/>
    </contour>
    <contour>
      <point x="40" y="-190" type="line"/>
      <point x="105" y="-190" type="line"/>
      <point x="105" y="-181" type="line" smooth="yes"/>
      <point x="105" y="-157"/>
      <point x="112" y="-128"/>
      <point x="135" y="-128" type="curve" smooth="yes"/>
      <point x="157" y="-128"/>
      <point x="172" y="-155"/>
      <point x="182" y="-190" type="curve"/>
      <point x="199" y="-190" type="line"/>
      <point x="234" y="-136" type="line"/>
      <point x="279" y="-190" type="line"/>
      <point x="353" y="-190" type="line"/>
      <point x="353" y="-49" type="line"/>
      <point x="282" y="-49" type="line"/>
      <point x="282" y="-138" type="line"/>
      <point x="294" y="-133" type="line"/>
      <point x="234" y="-68" type="line"/>
      <point x="195" y="-119" type="line"/>
      <point x="179" y="-88"/>
      <point x="158" y="-63"/>
      <point x="119" y="-63" type="curve" smooth="yes"/>
      <point x="76" y="-63"/>
      <point x="40" y="-100"/>
      <point x="40" y="-167" type="curve" smooth="yes"/>
    </contour>
    <contour>
      <point x="302" y="445" type="line"/>
      <point x="354" y="456"/>
      <point x="384" y="492"/>
      <point x="384" y="551" type="curve"/>
      <point x="309" y="551" type="line"/>
      <point x="308" y="514"/>
      <point x="284" y="494"/>
      <point x="257" y="489" type="curve"/>
    </contour>
  </outline>
</glyph>
<glyph name="thoNangmontho-thai" format="2">
  <advance width="472"/>
  <unicode hex="0E11"/>
  <anchor x="409" y="0" name="bottom"/>
  <anchor x="397" y="506" name="top"/>
  <outline>
    <contour>
      <point x="75" y="0" type="line"/>
      <point x="158" y="0" type="line"/>
      <point x="158" y="198" type="line" smooth="yes"/>
      <point x="158" y="284"/>
      <point x="167" y="312"/>
      <point x="195" y="364" type="curve" smooth="yes"/>
      <point x="229" y="428"/>
      <point x="254" y="456"/>
      <point x="283" y="456" type="curve" smooth="yes"/>
      <point x="311" y="456"/>
      <point x="326" y="430"/>
      <point x="326" y="374" type="curve" smooth="yes"/>
      <point x="326" y="0" type="line"/>
      <point x="408" y="0" type="line"/>
      <point x="408" y="390" type="line" smooth="yes"/>
      <point x="408" y="469"/>
      <point x="378" y="527"/>
      <point x="310" y="527" type="curve" smooth="yes"/>
      <point x="268" y="527"/>
      <point x="233" y="511"/>
      <point x="207" y="448" type="curve"/>
      <point x="204" y="448" type="line"/>
      <point x="204" y="517" type="line"/>
      <point x="163" y="517" type="line"/>
      <point x="150" y="479" type="line"/>
      <point x="143" y="467"/>
      <point x="134" y="463"/>
      <point x="126" y="463" type="curve" smooth="yes"/>
      <point x="110" y="463"/>
      <point x="103" y="477"/>
      <point x="103" y="517" type="curve"/>
      <point x="40" y="517" type="line"/>
      <point x="40" y="498" type="line" smooth="yes"/>
      <point x="40" y="441"/>
      <point x="64" y="410"/>
      <point x="99" y="410" type="curve" smooth="yes"/>
      <point x="113" y="410"/>
      <point x="125" y="416"/>
      <point x="135" y="427" type="curve"/>
      <point x="137" y="425" type="line"/>
      <point x="136" y="407"/>
      <point x="133" y="404"/>
      <point x="104" y="357" type="curve" smooth="yes"/>
      <point x="81" y="319"/>
      <point x="75" y="281"/>
      <point x="75" y="202" type="curve" smooth="yes"/>
    </contour>
  </outline>
</glyph>
<glyph name="thoPhuthao-thai" format="2">
  <advance width="673"/>
  <unicode hex="0E12"/>
  <anchor x="609" y="0" name="bottom"/>
  <anchor x="623" y="506" name="top"/>
  <outline>
    <contour>
      <point x="203" y="-9" type="curve" smooth="yes"/>
      <point x="224" y="-9"/>
      <point x="243" y="-7"/>
      <point x="258" y="3" type="curve"/>
      <point x="249" y="67" type="line"/>
      <point x="240" y="64"/>
      <point x="230" y="60"/>
      <point x="215" y="60" type="curve" smooth="yes"/>
      <point x="149" y="60"/>
      <point x="133" y="133"/>
      <point x="133" y="268" type="curve" smooth="yes"/>
      <point x="133" y="412"/>
      <point x="149" y="457"/>
      <point x="179" y="457" type="curve" smooth="yes"/>
      <point x="194" y="457"/>
      <point x="208" y="445"/>
      <point x="211" y="400" type="curve"/>
      <point x="251" y="400" type="line"/>
      <point x="254" y="440"/>
      <point x="264" y="457"/>
      <point x="284" y="457" type="curve" smooth="yes"/>
      <point x="303" y="457"/>
      <point x="315" y="442"/>
      <point x="315" y="394" type="curve" smooth="yes"/>
      <point x="315" y="0" type="line"/>
      <point x="380" y="0" type="line"/>
      <point x="387" y="82" type="line"/>
      <point x="391" y="82" type="line"/>
      <point x="408" y="28"/>
      <point x="446" y="-9"/>
      <point x="508" y="-9" type="curve" smooth="yes"/>
      <point x="579" y="-9"/>
      <point x="624" y="39"/>
      <point x="624" y="163" type="curve" smooth="yes"/>
      <point x="624" y="517" type="line"/>
      <point x="541" y="517" type="line"/>
      <point x="541" y="169" type="line" smooth="yes"/>
      <point x="541" y="93"/>
      <point x="516" y="61"/>
      <point x="480" y="61" type="curve" smooth="yes"/>
      <point x="430" y="61"/>
      <point x="397" y="122"/>
      <point x="397" y="214" type="curve" smooth="yes"/>
      <point x="397" y="395" type="line" smooth="yes"/>
      <point x="397" y="484"/>
      <point x="362" y="527"/>
      <point x="305" y="527" type="curve" smooth="yes"/>
      <point x="274" y="527"/>
      <point x="245" y="514"/>
      <point x="234" y="478" type="curve"/>
      <point x="231" y="478" type="line"/>
      <point x="220" y="513"/>
      <point x="195" y="527"/>
      <point x="164" y="527" type="curve" smooth="yes"/>
      <point x="92" y="527"/>
      <point x="51" y="459"/>
      <point x="51" y="265" type="curve" smooth="yes"/>
      <point x="51" y="102"/>
      <point x="84" y="-9"/>
    </contour>
  </outline>
</glyph>
<glyph name="noNen-thai" format="2">
  <advance width="673"/>
  <unicode hex="0E13"/>
  <anchor x="603" y="0" name="bottom"/>
  <anchor x="603" y="506" name="top"/>
  <outline>
    <contour>
      <point x="151" y="-9" type="curve" smooth="yes"/>
      <point x="171" y="-9"/>
      <point x="191" y="-6"/>
      <point x="209" y="4" type="curve"/>
      <point x="199" y="66" type="line"/>
      <point x="192" y="62"/>
      <point x="182" y="59"/>
      <point x="174" y="59" type="curve" smooth="yes"/>
      <point x="153" y="59"/>
      <point x="144" y="70"/>
      <point x="144" y="100" type="curve" smooth="yes"/>
      <point x="144" y="182" type="line" smooth="yes"/>
      <point x="144" y="250"/>
      <point x="168" y="277"/>
      <point x="203" y="277" type="curve"/>
      <point x="210" y="322" type="line"/>
      <point x="138" y="373" type="line"/>
      <point x="139" y="428"/>
      <point x="170" y="457"/>
      <point x="214" y="457" type="curve" smooth="yes"/>
      <point x="257" y="457"/>
      <point x="294" y="431"/>
      <point x="294" y="341" type="curve" smooth="yes"/>
      <point x="294" y="162" type="line" smooth="yes"/>
      <point x="294" y="38"/>
      <point x="339" y="-9"/>
      <point x="414" y="-9" type="curve" smooth="yes"/>
      <point x="467" y="-9"/>
      <point x="510" y="25"/>
      <point x="526" y="82" type="curve"/>
      <point x="531" y="82" type="line"/>
      <point x="538" y="0" type="line"/>
      <point x="603" y="0" type="line"/>
      <point x="603" y="517" type="line"/>
      <point x="521" y="517" type="line"/>
      <point x="521" y="214" type="line" smooth="yes"/>
      <point x="521" y="122"/>
      <point x="488" y="61"/>
      <point x="438" y="61" type="curve" smooth="yes"/>
      <point x="401" y="61"/>
      <point x="376" y="93"/>
      <point x="376" y="169" type="curve" smooth="yes"/>
      <point x="376" y="349" type="line" smooth="yes"/>
      <point x="376" y="480"/>
      <point x="305" y="527"/>
      <point x="215" y="527" type="curve" smooth="yes"/>
      <point x="114" y="527"/>
      <point x="53" y="460"/>
      <point x="53" y="377" type="curve" smooth="yes"/>
      <point x="53" y="346" type="line"/>
      <point x="133" y="306" type="line"/>
      <point x="132" y="303" type="line"/>
      <point x="90" y="290"/>
      <point x="63" y="260"/>
      <point x="63" y="181" type="curve" smooth="yes"/>
      <point x="63" y="89" type="line" smooth="yes"/>
      <point x="63" y="12"/>
      <point x="102" y="-9"/>
    </contour>
  </outline>
</glyph>
<glyph name="doDek-thai" format="2">
  <advance width="463"/>
  <unicode hex="0E14"/>
  <anchor x="399" y="0" name="bottom"/>
  <anchor x="388" y="506" name="top"/>
  <outline>
    <contour>
      <point x="200" y="-9" type="curve" smooth="yes"/>
      <point x="218" y="-9"/>
      <point x="241" y="-7"/>
      <point x="255" y="3" type="curve"/>
      <point x="247" y="68" type="line"/>
      <point x="238" y="63"/>
      <point x="226" y="60"/>
      <point x="214" y="60" type="curve" smooth="yes"/>
      <point x="151" y="60"/>
      <point x="132" y="144"/>
      <point x="132" y="254" type="curve" smooth="yes"/>
      <point x="132" y="422"/>
      <point x="173" y="457"/>
      <point x="232" y="457" type="curve" smooth="yes"/>
      <point x="293" y="457"/>
      <point x="316" y="415"/>
      <point x="316" y="337" type="curve" smooth="yes"/>
      <point x="316" y="0" type="line"/>
      <point x="399" y="0" type="line"/>
      <point x="399" y="345" type="line" smooth="yes"/>
      <point x="399" y="457"/>
      <point x="350" y="527"/>
      <point x="231" y="527" type="curve" smooth="yes"/>
      <point x="123" y="527"/>
      <point x="49" y="468"/>
      <point x="49" y="255" type="curve" smooth="yes"/>
      <point x="49" y="109"/>
      <point x="85" y="-9"/>
    </contour>
  </outline>
</glyph>
<glyph name="toTao-thai" format="2">
  <advance width="476"/>
  <unicode hex="0E15"/>
  <note>
uni0E15
</note>
  <anchor x="413" y="0" name="bottom"/>
  <anchor x="401" y="506" name="top"/>
  <outline>
    <contour>
      <point x="207" y="-9" type="curve" smooth="yes"/>
      <point x="227" y="-9"/>
      <point x="246" y="-7"/>
      <point x="261" y="3" type="curve"/>
      <point x="253" y="67" type="line"/>
      <point x="243" y="64"/>
      <point x="233" y="60"/>
      <point x="218" y="60" type="curve" smooth="yes"/>
      <point x="150" y="60"/>
      <point x="134" y="138"/>
      <point x="134" y="268" type="curve" smooth="yes"/>
      <point x="134" y="403"/>
      <point x="150" y="457"/>
      <point x="182" y="457" type="curve" smooth="yes"/>
      <point x="199" y="457"/>
      <point x="214" y="445"/>
      <point x="218" y="401" type="curve"/>
      <point x="258" y="401" type="line"/>
      <point x="261" y="441"/>
      <point x="272" y="457"/>
      <point x="295" y="457" type="curve" smooth="yes"/>
      <point x="315" y="457"/>
      <point x="330" y="443"/>
      <point x="330" y="394" type="curve" smooth="yes"/>
      <point x="330" y="0" type="line"/>
      <point x="412" y="0" type="line"/>
      <point x="412" y="395" type="line" smooth="yes"/>
      <point x="412" y="484"/>
      <point x="378" y="527"/>
      <point x="315" y="527" type="curve" smooth="yes"/>
      <point x="281" y="527"/>
      <point x="252" y="514"/>
      <point x="241" y="478" type="curve"/>
      <point x="238" y="478" type="line"/>
      <point x="226" y="513"/>
      <point x="202" y="527"/>
      <point x="168" y="527" type="curve" smooth="yes"/>
      <point x="92" y="527"/>
      <point x="51" y="454"/>
      <point x="51" y="269" type="curve" smooth="yes"/>
      <point x="51" y="109"/>
      <point x="84" y="-9"/>
    </contour>
  </outline>
</glyph>
<glyph name="thoThung-thai" format="2">
  <advance width="454"/>
  <unicode hex="0E16"/>
  <anchor x="390" y="0" name="bottom"/>
  <anchor x="380" y="506" name="top"/>
  <outline>
    <contour>
      <point x="151" y="-9" type="curve" smooth="yes"/>
      <point x="171" y="-9"/>
      <point x="191" y="-6"/>
      <point x="209" y="4" type="curve"/>
      <point x="199" y="66" type="line"/>
      <point x="192" y="62"/>
      <point x="182" y="59"/>
      <point x="174" y="59" type="curve" smooth="yes"/>
      <point x="153" y="59"/>
      <point x="144" y="70"/>
      <point x="144" y="100" type="curve" smooth="yes"/>
      <point x="144" y="191" type="line" smooth="yes"/>
      <point x="144" y="258"/>
      <point x="168" y="276"/>
      <point x="203" y="277" type="curve"/>
      <point x="210" y="321" type="line"/>
      <point x="138" y="372" type="line"/>
      <point x="138" y="421"/>
      <point x="168" y="457"/>
      <point x="220" y="457" type="curve" smooth="yes"/>
      <point x="271" y="457"/>
      <point x="308" y="424"/>
      <point x="308" y="340" type="curve" smooth="yes"/>
      <point x="308" y="0" type="line"/>
      <point x="390" y="0" type="line"/>
      <point x="390" y="349" type="line" smooth="yes"/>
      <point x="390" y="474"/>
      <point x="318" y="527"/>
      <point x="222" y="527" type="curve" smooth="yes"/>
      <point x="114" y="527"/>
      <point x="53" y="454"/>
      <point x="53" y="377" type="curve" smooth="yes"/>
      <point x="53" y="346" type="line"/>
      <point x="133" y="306" type="line"/>
      <point x="132" y="303" type="line"/>
      <point x="90" y="290"/>
      <point x="63" y="260"/>
      <point x="63" y="181" type="curve" smooth="yes"/>
      <point x="63" y="89" type="line" smooth="yes"/>
      <point x="63" y="12"/>
      <point x="102" y="-9"/>
    </contour>
  </outline>
</glyph>
<glyph name="thoThahan-thai" format="2">
  <advance width="462"/>
  <unicode hex="0E17"/>
  <anchor x="398" y="0" name="bottom"/>
  <anchor x="387" y="506" name="top"/>
  <outline>
    <contour>
      <point x="67" y="0" type="line"/>
      <point x="149" y="0" type="line"/>
      <point x="149" y="300" type="line" smooth="yes"/>
      <point x="149" y="387"/>
      <point x="183" y="456"/>
      <point x="241" y="456" type="curve" smooth="yes"/>
      <point x="290" y="456"/>
      <point x="316" y="417"/>
      <point x="316" y="341" type="curve" smooth="yes"/>
      <point x="316" y="0" type="line"/>
      <point x="398" y="0" type="line"/>
      <point x="398" y="346" type="line" smooth="yes"/>
      <point x="398" y="471"/>
      <point x="350" y="527"/>
      <point x="263" y="527" type="curve" smooth="yes"/>
      <point x="201" y="527"/>
      <point x="159" y="493"/>
      <point x="143" y="435" type="curve"/>
      <point x="139" y="435" type="line"/>
      <point x="126" y="517" type="line"/>
      <point x="67" y="517" type="line"/>
    </contour>
  </outline>
</glyph>
<glyph name="thoThong-thai" format="2">
  <advance width="411"/>
  <unicode hex="0E18"/>
  <anchor x="333" y="0" name="bottom"/>
  <anchor x="357" y="506" name="top"/>
  <outline>
    <contour>
      <point x="209" y="-10" type="curve" smooth="yes"/>
      <point x="328" y="-10"/>
      <point x="370" y="54"/>
      <point x="370" y="153" type="curve" smooth="yes"/>
      <point x="370" y="275"/>
      <point x="312" y="303"/>
      <point x="233" y="331" type="curve" smooth="yes"/>
      <point x="171" y="353"/>
      <point x="133" y="367"/>
      <point x="133" y="408" type="curve" smooth="yes"/>
      <point x="133" y="444"/>
      <point x="161" y="458"/>
      <point x="202" y="458" type="curve" smooth="yes"/>
      <point x="260" y="458"/>
      <point x="316" y="438"/>
      <point x="343" y="421" type="curve"/>
      <point x="343" y="496" type="line"/>
      <point x="319" y="509"/>
      <point x="273" y="527"/>
      <point x="208" y="527" type="curve" smooth="yes"/>
      <point x="105" y="527"/>
      <point x="51" y="481"/>
      <point x="51" y="401" type="curve" smooth="yes"/>
      <point x="51" y="325"/>
      <point x="92" y="301"/>
      <point x="175" y="266" type="curve" smooth="yes"/>
      <point x="249" y="235"/>
      <point x="290" y="225"/>
      <point x="290" y="152" type="curve" smooth="yes"/>
      <point x="290" y="75"/>
      <point x="251" y="59"/>
      <point x="207" y="59" type="curve" smooth="yes"/>
      <point x="178" y="59"/>
      <point x="150" y="67"/>
      <point x="137" y="76" type="curve"/>
      <point x="137" y="240" type="line"/>
      <point x="64" y="240" type="line"/>
      <point x="64" y="25" type="line"/>
      <point x="100" y="8"/>
      <point x="149" y="-10"/>
    </contour>
  </outline>
</glyph>
<glyph name="noNu-thai" format="2">
  <advance width="465"/>
  <unicode hex="0E19"/>
  <note>
uni0E19
</note>
  <guideline x="229" y="345" angle="0"/>
  <anchor x="395" y="0" name="bottom"/>
  <anchor x="395" y="506" name="top"/>
  <outline>
    <contour>
      <point x="198" y="-9" type="curve" smooth="yes"/>
      <point x="262" y="-9"/>
      <point x="303" y="25"/>
      <point x="319" y="77" type="curve"/>
      <point x="323" y="77" type="line"/>
      <point x="331" y="0" type="line"/>
      <point x="395" y="0" type="line"/>
      <point x="395" y="517" type="line"/>
      <point x="313" y="517" type="line"/>
      <point x="313" y="218" type="line" smooth="yes"/>
      <point x="313" y="122"/>
      <point x="280" y="61"/>
      <point x="220" y="61" type="curve" smooth="yes"/>
      <point x="172" y="61"/>
      <point x="146" y="101"/>
      <point x="146" y="177" type="curve" smooth="yes"/>
      <point x="146" y="517" type="line"/>
      <point x="64" y="517" type="line"/>
      <point x="64" y="171" type="line" smooth="yes"/>
      <point x="64" y="46"/>
      <point x="113" y="-9"/>
    </contour>
  </outline>
</glyph>
<glyph name="boBaimai-thai" format="2">
  <advance width="457"/>
  <unicode hex="0E1A"/>
  <note>
uni0E1A
</note>
  <guideline x="268" y="392" angle="180"/>
  <anchor x="377" y="0" name="bottom"/>
  <anchor x="393" y="506" name="top"/>
  <outline>
    <contour>
      <point x="229" y="-10" type="curve" smooth="yes"/>
      <point x="345" y="-10"/>
      <point x="393" y="60"/>
      <point x="393" y="186" type="curve" smooth="yes"/>
      <point x="393" y="517" type="line"/>
      <point x="311" y="517" type="line"/>
      <point x="311" y="186" type="line" smooth="yes"/>
      <point x="311" y="102"/>
      <point x="285" y="60"/>
      <point x="229" y="60" type="curve" smooth="yes"/>
      <point x="172" y="60"/>
      <point x="146" y="102"/>
      <point x="146" y="186" type="curve" smooth="yes"/>
      <point x="146" y="517" type="line"/>
      <point x="64" y="517" type="line"/>
      <point x="64" y="186" type="line" smooth="yes"/>
      <point x="64" y="60"/>
      <point x="112" y="-10"/>
    </contour>
  </outline>
</glyph>
<glyph name="poPla-thai" format="2">
  <advance width="458"/>
  <unicode hex="0E1B"/>
  <note>
uni0E1B
</note>
  <anchor x="377" y="0" name="bottom"/>
  <anchor x="275" y="506" name="top"/>
  <outline>
    <contour>
      <point x="229" y="-10" type="curve" smooth="yes"/>
      <point x="345" y="-10"/>
      <point x="393" y="60"/>
      <point x="393" y="186" type="curve" smooth="yes"/>
      <point x="393" y="703" type="line"/>
      <point x="311" y="703" type="line"/>
      <point x="311" y="186" type="line" smooth="yes"/>
      <point x="311" y="102"/>
      <point x="285" y="60"/>
      <point x="229" y="60" type="curve" smooth="yes"/>
      <point x="172" y="60"/>
      <point x="146" y="102"/>
      <point x="146" y="186" type="curve" smooth="yes"/>
      <point x="146" y="517" type="line"/>
      <point x="64" y="517" type="line"/>
      <point x="64" y="186" type="line" smooth="yes"/>
      <point x="64" y="60"/>
      <point x="112" y="-10"/>
    </contour>
  </outline>
</glyph>
<glyph name="phoPhung-thai" format="2">
  <advance width="491"/>
  <unicode hex="0E1C"/>
  <anchor x="421" y="0" name="bottom"/>
  <anchor x="421" y="506" name="top"/>
  <outline>
    <contour>
      <point x="68" y="0" type="line"/>
      <point x="144" y="0" type="line"/>
      <point x="243" y="247" type="line"/>
      <point x="246" y="247" type="line"/>
      <point x="345" y="0" type="line"/>
      <point x="421" y="0" type="line"/>
      <point x="421" y="517" type="line"/>
      <point x="343" y="517" type="line"/>
      <point x="343" y="283" type="line" smooth="yes"/>
      <point x="343" y="244"/>
      <point x="344" y="205"/>
      <point x="348" y="146" type="curve"/>
      <point x="345" y="146" type="line"/>
      <point x="332" y="185"/>
      <point x="321" y="217"/>
      <point x="290" y="283" type="curve" smooth="yes"/>
      <point x="264" y="338" type="line"/>
      <point x="225" y="338" type="line"/>
      <point x="199" y="281" type="line" smooth="yes"/>
      <point x="177" y="233"/>
      <point x="162" y="200"/>
      <point x="144" y="146" type="curve"/>
      <point x="141" y="146" type="line"/>
      <point x="145" y="205"/>
      <point x="147" y="244"/>
      <point x="147" y="283" type="curve" smooth="yes"/>
      <point x="147" y="415" type="line" smooth="yes"/>
      <point x="147" y="442"/>
      <point x="153" y="458"/>
      <point x="174" y="458" type="curve" smooth="yes"/>
      <point x="180" y="458"/>
      <point x="189" y="456"/>
      <point x="198" y="452" type="curve"/>
      <point x="209" y="516" type="line"/>
      <point x="196" y="524"/>
      <point x="176" y="527"/>
      <point x="158" y="527" type="curve" smooth="yes"/>
      <point x="108" y="527"/>
      <point x="68" y="506"/>
      <point x="68" y="427" type="curve" smooth="yes"/>
    </contour>
  </outline>
</glyph>
<glyph name="phoPhan-thai" format="2">
  <advance width="523"/>
  <unicode hex="0E1E"/>
  <note>
uni0E1E
</note>
  <anchor x="419" y="0" name="bottom"/>
  <anchor x="458" y="506" name="top"/>
  <outline>
    <contour>
      <point x="105" y="0" type="line"/>
      <point x="184" y="0" type="line"/>
      <point x="240" y="271" type="line" smooth="yes"/>
      <point x="248" y="312"/>
      <point x="254" y="332"/>
      <point x="260" y="388" type="curve"/>
      <point x="263" y="388" type="line"/>
      <point x="268" y="332"/>
      <point x="275" y="303"/>
      <point x="281" y="271" type="curve" smooth="yes"/>
      <point x="338" y="0" type="line"/>
      <point x="419" y="0" type="line"/>
      <point x="487" y="517" type="line"/>
      <point x="402" y="517" type="line"/>
      <point x="378" y="307" type="line" smooth="yes"/>
      <point x="374" y="270"/>
      <point x="373" y="213"/>
      <point x="367" y="132" type="curve"/>
      <point x="365" y="132" type="line"/>
      <point x="353" y="213"/>
      <point x="342" y="270"/>
      <point x="334" y="310" type="curve" smooth="yes"/>
      <point x="290" y="517" type="line"/>
      <point x="233" y="517" type="line"/>
      <point x="189" y="310" type="line" smooth="yes"/>
      <point x="181" y="270"/>
      <point x="170" y="213"/>
      <point x="158" y="132" type="curve"/>
      <point x="155" y="132" type="line"/>
      <point x="150" y="213"/>
      <point x="149" y="270"/>
      <point x="145" y="307" type="curve" smooth="yes"/>
      <point x="121" y="517" type="line"/>
      <point x="36" y="517" type="line"/>
    </contour>
  </outline>
</glyph>
<glyph name="foFan-thai" format="2">
  <advance width="516"/>
  <unicode hex="0E1F"/>
  <anchor x="419" y="0" name="bottom"/>
  <anchor x="347" y="506" name="top"/>
  <outline>
    <contour>
      <point x="105" y="0" type="line"/>
      <point x="184" y="0" type="line"/>
      <point x="240" y="271" type="line" smooth="yes"/>
      <point x="248" y="311"/>
      <point x="254" y="332"/>
      <point x="260" y="388" type="curve"/>
      <point x="263" y="388" type="line"/>
      <point x="268" y="332"/>
      <point x="275" y="303"/>
      <point x="281" y="271" type="curve" smooth="yes"/>
      <point x="338" y="0" type="line"/>
      <point x="419" y="0" type="line"/>
      <point x="499" y="703" type="line"/>
      <point x="414" y="703" type="line"/>
      <point x="381" y="307" type="line" smooth="yes"/>
      <point x="378" y="269"/>
      <point x="376" y="212"/>
      <point x="370" y="132" type="curve"/>
      <point x="368" y="132" type="line"/>
      <point x="356" y="212"/>
      <point x="346" y="269"/>
      <point x="337" y="310" type="curve" smooth="yes"/>
      <point x="290" y="517" type="line"/>
      <point x="233" y="517" type="line"/>
      <point x="189" y="310" type="line" smooth="yes"/>
      <point x="181" y="269"/>
      <point x="170" y="212"/>
      <point x="158" y="132" type="curve"/>
      <point x="155" y="132" type="line"/>
      <point x="150" y="212"/>
      <point x="149" y="271"/>
      <point x="145" y="307" type="curve" smooth="yes"/>
      <point x="121" y="517" type="line"/>
      <point x="36" y="517" type="line"/>
    </contour>
  </outline>
</glyph>
<glyph name="phoSamphao-thai" format="2">
  <advance width="459"/>
  <unicode hex="0E20"/>
  <anchor x="395" y="0" name="bottom"/>
  <anchor x="386" y="506" name="top"/>
  <outline>
    <contour>
      <point x="81" y="-9" type="curve" smooth="yes"/>
      <point x="125" y="-9"/>
      <point x="158" y="11"/>
      <point x="158" y="88" type="curve" smooth="yes"/>
      <point x="158" y="180" type="line" smooth="yes"/>
      <point x="158" y="248"/>
      <point x="177" y="277"/>
      <point x="208" y="277" type="curve"/>
      <point x="215" y="322" type="line"/>
      <point x="142" y="372" type="line"/>
      <point x="143" y="421"/>
      <point x="172" y="457"/>
      <point x="225" y="457" type="curve" smooth="yes"/>
      <point x="276" y="457"/>
      <point x="312" y="424"/>
      <point x="312" y="340" type="curve" smooth="yes"/>
      <point x="312" y="0" type="line"/>
      <point x="395" y="0" type="line"/>
      <point x="395" y="349" type="line" smooth="yes"/>
      <point x="395" y="474"/>
      <point x="323" y="527"/>
      <point x="226" y="527" type="curve" smooth="yes"/>
      <point x="118" y="527"/>
      <point x="58" y="454"/>
      <point x="58" y="377" type="curve" smooth="yes"/>
      <point x="58" y="346" type="line"/>
      <point x="138" y="306" type="line"/>
      <point x="137" y="303" type="line"/>
      <point x="98" y="290"/>
      <point x="76" y="261"/>
      <point x="76" y="183" type="curve" smooth="yes"/>
      <point x="76" y="95" type="line" smooth="yes"/>
      <point x="76" y="69"/>
      <point x="70" y="58"/>
      <point x="55" y="58" type="curve" smooth="yes"/>
      <point x="47" y="58"/>
      <point x="40" y="61"/>
      <point x="34" y="64" type="curve"/>
      <point x="25" y="4" type="line"/>
      <point x="42" y="-5"/>
      <point x="60" y="-9"/>
    </contour>
  </outline>
</glyph>
<glyph name="moMa-thai" format="2">
  <advance width="465"/>
  <unicode hex="0E21"/>
  <note>
uni0E21
</note>
  <anchor x="388" y="0" name="bottom"/>
  <anchor x="401" y="506" name="top"/>
  <outline>
    <contour>
      <point x="270" y="-9" type="curve" smooth="yes"/>
      <point x="354" y="-9"/>
      <point x="401" y="46"/>
      <point x="401" y="171" type="curve" smooth="yes"/>
      <point x="401" y="517" type="line"/>
      <point x="319" y="517" type="line"/>
      <point x="319" y="177" type="line" smooth="yes"/>
      <point x="319" y="101"/>
      <point x="294" y="61"/>
      <point x="246" y="61" type="curve" smooth="yes"/>
      <point x="187" y="61"/>
      <point x="152" y="122"/>
      <point x="152" y="218" type="curve" smooth="yes"/>
      <point x="152" y="517" type="line"/>
      <point x="70" y="517" type="line"/>
      <point x="70" y="0" type="line"/>
      <point x="135" y="0" type="line"/>
      <point x="142" y="82" type="line"/>
      <point x="146" y="82" type="line"/>
      <point x="163" y="25"/>
      <point x="206" y="-9"/>
    </contour>
  </outline>
</glyph>
<glyph name="yoYak-thai" format="2">
  <advance width="450"/>
  <unicode hex="0E22"/>
  <note>
uni0E22
</note>
  <anchor x="369" y="0" name="bottom"/>
  <anchor x="386" y="506" name="top"/>
  <outline>
    <contour>
      <point x="220" y="-9" type="curve" smooth="yes"/>
      <point x="334" y="-9"/>
      <point x="386" y="46"/>
      <point x="386" y="177" type="curve" smooth="yes"/>
      <point x="386" y="517" type="line"/>
      <point x="303" y="517" type="line"/>
      <point x="303" y="172" type="line" smooth="yes"/>
      <point x="303" y="102"/>
      <point x="284" y="61"/>
      <point x="221" y="61" type="curve" smooth="yes"/>
      <point x="156" y="61"/>
      <point x="139" y="105"/>
      <point x="139" y="159" type="curve" smooth="yes"/>
      <point x="139" y="223"/>
      <point x="162" y="248"/>
      <point x="212" y="248" type="curve" smooth="yes"/>
      <point x="226" y="248" type="line"/>
      <point x="226" y="308" type="line"/>
      <point x="212" y="308" type="line" smooth="yes"/>
      <point x="174" y="308"/>
      <point x="137" y="322"/>
      <point x="137" y="389" type="curve" smooth="yes"/>
      <point x="137" y="428"/>
      <point x="153" y="455"/>
      <point x="188" y="455" type="curve" smooth="yes"/>
      <point x="204" y="455"/>
      <point x="220" y="450"/>
      <point x="229" y="445" type="curve"/>
      <point x="242" y="510" type="line"/>
      <point x="228" y="519"/>
      <point x="200" y="524"/>
      <point x="174" y="524" type="curve" smooth="yes"/>
      <point x="86" y="524"/>
      <point x="54" y="460"/>
      <point x="54" y="395" type="curve" smooth="yes"/>
      <point x="54" y="322"/>
      <point x="89" y="289"/>
      <point x="120" y="280" type="curve"/>
      <point x="120" y="276" type="line"/>
      <point x="88" y="268"/>
      <point x="55" y="239"/>
      <point x="55" y="152" type="curve" smooth="yes"/>
      <point x="55" y="54"/>
      <point x="100" y="-9"/>
    </contour>
  </outline>
</glyph>
<glyph name="roRua-thai" format="2">
  <advance width="376"/>
  <unicode hex="0E23"/>
  <note>
uni0E23
</note>
  <anchor x="303" y="0" name="bottom"/>
  <anchor x="332" y="506" name="top"/>
  <outline>
    <contour>
      <point x="184" y="-10" type="curve" smooth="yes"/>
      <point x="301" y="-10"/>
      <point x="340" y="62"/>
      <point x="340" y="141" type="curve" smooth="yes"/>
      <point x="340" y="232"/>
      <point x="291" y="262"/>
      <point x="220" y="298" type="curve" smooth="yes"/>
      <point x="153" y="332"/>
      <point x="127" y="354"/>
      <point x="127" y="395" type="curve" smooth="yes"/>
      <point x="127" y="429"/>
      <point x="148" y="458"/>
      <point x="201" y="458" type="curve" smooth="yes"/>
      <point x="244" y="458"/>
      <point x="291" y="441"/>
      <point x="315" y="426" type="curve"/>
      <point x="315" y="497" type="line"/>
      <point x="293" y="516"/>
      <point x="249" y="527"/>
      <point x="200" y="527" type="curve" smooth="yes"/>
      <point x="98" y="527"/>
      <point x="44" y="469"/>
      <point x="44" y="392" type="curve" smooth="yes"/>
      <point x="44" y="302"/>
      <point x="92" y="267"/>
      <point x="176" y="229" type="curve" smooth="yes"/>
      <point x="231" y="204"/>
      <point x="257" y="176"/>
      <point x="257" y="134" type="curve" smooth="yes"/>
      <point x="257" y="86"/>
      <point x="228" y="60"/>
      <point x="183" y="60" type="curve" smooth="yes"/>
      <point x="135" y="60"/>
      <point x="89" y="79"/>
      <point x="60" y="95" type="curve"/>
      <point x="37" y="27" type="line"/>
      <point x="75" y="7"/>
      <point x="129" y="-10"/>
    </contour>
  </outline>
</glyph>
<glyph name="ru-thai" format="2">
  <advance width="454"/>
  <unicode hex="0E24"/>
  <anchor x="390" y="-178" name="bottom"/>
  <anchor x="378" y="506" name="top"/>
  <outline>
    <contour>
      <point x="308" y="-190" type="line"/>
      <point x="390" y="-190" type="line"/>
      <point x="390" y="94" type="line"/>
      <point x="308" y="94" type="line"/>
    </contour>
    <component base="thoThung-thai"/>
  </outline>
</glyph>
<glyph name="loLing-thai" format="2">
  <advance width="435"/>
  <unicode hex="0E25"/>
  <anchor x="371" y="0" name="bottom"/>
  <anchor x="365" y="506" name="top"/>
  <outline>
    <contour>
      <point x="289" y="0" type="line"/>
      <point x="371" y="0" type="line"/>
      <point x="371" y="350" type="line" smooth="yes"/>
      <point x="371" y="471"/>
      <point x="312" y="527"/>
      <point x="214" y="527" type="curve" smooth="yes"/>
      <point x="152" y="527"/>
      <point x="102" y="507"/>
      <point x="75" y="488" type="curve"/>
      <point x="75" y="410" type="line"/>
      <point x="112" y="440"/>
      <point x="158" y="458"/>
      <point x="206" y="458" type="curve" smooth="yes"/>
      <point x="265" y="458"/>
      <point x="289" y="426"/>
      <point x="289" y="345" type="curve" smooth="yes"/>
    </contour>
    <contour>
      <point x="170" y="-9" type="curve" smooth="yes"/>
      <point x="194" y="-9"/>
      <point x="218" y="-6"/>
      <point x="236" y="4" type="curve"/>
      <point x="227" y="67" type="line"/>
      <point x="216" y="62"/>
      <point x="203" y="59"/>
      <point x="189" y="59" type="curve" smooth="yes"/>
      <point x="149" y="59"/>
      <point x="124" y="83"/>
      <point x="124" y="141" type="curve" smooth="yes"/>
      <point x="124" y="201"/>
      <point x="150" y="233"/>
      <point x="228" y="240" type="curve" smooth="yes"/>
      <point x="303" y="247" type="line"/>
      <point x="303" y="317" type="line"/>
      <point x="218" y="310" type="line" smooth="yes"/>
      <point x="94" y="300"/>
      <point x="42" y="242"/>
      <point x="42" y="139" type="curve" smooth="yes"/>
      <point x="42" y="43"/>
      <point x="87" y="-9"/>
    </contour>
  </outline>
</glyph>
<glyph name="lu-thai" format="2">
  <advance width="459"/>
  <unicode hex="0E26"/>
  <anchor x="395" y="-178" name="bottom"/>
  <anchor x="381" y="506" name="top"/>
  <outline>
    <contour>
      <point x="312" y="-190" type="line"/>
      <point x="395" y="-190" type="line"/>
      <point x="395" y="94" type="line"/>
      <point x="312" y="94" type="line"/>
    </contour>
    <component base="phoSamphao-thai"/>
  </outline>
</glyph>
<glyph name="woWaen-thai" format="2">
  <advance width="376"/>
  <unicode hex="0E27"/>
  <guideline x="423" y="129" angle="90"/>
  <anchor x="278" y="0" name="bottom"/>
  <anchor x="318" y="506" name="top"/>
  <outline>
    <contour>
      <point x="154" y="-10" type="curve" smooth="yes"/>
      <point x="267" y="-10"/>
      <point x="326" y="94"/>
      <point x="326" y="261" type="curve" smooth="yes"/>
      <point x="326" y="420"/>
      <point x="273" y="527"/>
      <point x="143" y="527" type="curve" smooth="yes"/>
      <point x="106" y="527"/>
      <point x="71" y="520"/>
      <point x="43" y="501" type="curve"/>
      <point x="43" y="431" type="line"/>
      <point x="66" y="448"/>
      <point x="101" y="457"/>
      <point x="131" y="457" type="curve" smooth="yes"/>
      <point x="206" y="457"/>
      <point x="242" y="388"/>
      <point x="242" y="261" type="curve" smooth="yes"/>
      <point x="242" y="130"/>
      <point x="204" y="60"/>
      <point x="142" y="60" type="curve" smooth="yes"/>
      <point x="110" y="60"/>
      <point x="81" y="74"/>
      <point x="61" y="90" type="curve"/>
      <point x="37" y="27" type="line"/>
      <point x="75" y="-1"/>
      <point x="112" y="-10"/>
    </contour>
  </outline>
</glyph>
<glyph name="soSala-thai" format="2">
  <advance width="476"/>
  <unicode hex="0E28"/>
  <anchor x="397" y="0" name="bottom"/>
  <anchor x="386" y="506" name="top"/>
  <outline>
    <contour>
      <point x="64" y="0" type="line"/>
      <point x="146" y="0" type="line"/>
      <point x="146" y="100" type="line" smooth="yes"/>
      <point x="146" y="163"/>
      <point x="163" y="216"/>
      <point x="242" y="216" type="curve" smooth="yes"/>
      <point x="263" y="216" type="line"/>
      <point x="263" y="285" type="line"/>
      <point x="242" y="285" type="line" smooth="yes"/>
      <point x="192" y="285"/>
      <point x="168" y="274"/>
      <point x="148" y="225" type="curve"/>
      <point x="146" y="226" type="line"/>
      <point x="146" y="331" type="line" smooth="yes"/>
      <point x="146" y="415"/>
      <point x="174" y="457"/>
      <point x="233" y="457" type="curve" smooth="yes"/>
      <point x="292" y="457"/>
      <point x="320" y="415"/>
      <point x="320" y="331" type="curve" smooth="yes"/>
      <point x="320" y="0" type="line"/>
      <point x="402" y="0" type="line"/>
      <point x="402" y="330" type="line" smooth="yes"/>
      <point x="402" y="398"/>
      <point x="388" y="449"/>
      <point x="349" y="471" type="curve"/>
      <point x="327" y="512"/>
      <point x="286" y="527"/>
      <point x="234" y="527" type="curve" smooth="yes"/>
      <point x="115" y="527"/>
      <point x="64" y="457"/>
      <point x="64" y="331" type="curve" smooth="yes"/>
    </contour>
    <contour>
      <point x="351" y="445" type="line"/>
      <point x="402" y="456"/>
      <point x="433" y="492"/>
      <point x="433" y="551" type="curve"/>
      <point x="357" y="551" type="line"/>
      <point x="357" y="514"/>
      <point x="333" y="494"/>
      <point x="305" y="489" type="curve"/>
    </contour>
  </outline>
</glyph>
<glyph name="soRusi-thai" format="2">
  <advance width="485"/>
  <unicode hex="0E29"/>
  <anchor x="383" y="0" name="bottom"/>
  <anchor x="405" y="506" name="top"/>
  <outline>
    <contour>
      <point x="234" y="-10" type="curve" smooth="yes"/>
      <point x="357" y="-10"/>
      <point x="405" y="63"/>
      <point x="405" y="191" type="curve" smooth="yes"/>
      <point x="405" y="517" type="line"/>
      <point x="323" y="517" type="line"/>
      <point x="323" y="190" type="line" smooth="yes"/>
      <point x="323" y="102"/>
      <point x="297" y="60"/>
      <point x="235" y="60" type="curve" smooth="yes"/>
      <point x="172" y="60"/>
      <point x="146" y="102"/>
      <point x="146" y="190" type="curve" smooth="yes"/>
      <point x="146" y="517" type="line"/>
      <point x="64" y="517" type="line"/>
      <point x="64" y="191" type="line" smooth="yes"/>
      <point x="64" y="63"/>
      <point x="112" y="-10"/>
    </contour>
    <contour>
      <point x="278" y="214" type="curve" smooth="yes"/>
      <point x="448" y="214" type="line"/>
      <point x="448" y="277" type="line"/>
      <point x="283" y="277" type="line" smooth="yes"/>
      <point x="267" y="277"/>
      <point x="260" y="293"/>
      <point x="260" y="310" type="curve" smooth="yes"/>
      <point x="260" y="320"/>
      <point x="262" y="332"/>
      <point x="264" y="338" type="curve"/>
      <point x="208" y="349" type="line"/>
      <point x="200" y="336"/>
      <point x="196" y="314"/>
      <point x="196" y="295" type="curve" smooth="yes"/>
      <point x="196" y="254"/>
      <point x="215" y="214"/>
    </contour>
  </outline>
</glyph>
<glyph name="hoHip-thai" format="2">
  <advance width="448"/>
  <unicode hex="0E2B"/>
  <note>
uni0E2B
</note>
  <anchor x="392" y="0" name="bottom"/>
  <anchor x="381" y="506" name="top"/>
  <outline>
    <contour>
      <point x="70" y="0" type="line"/>
      <point x="152" y="0" type="line"/>
      <point x="152" y="195" type="line"/>
      <point x="390" y="514" type="line"/>
      <point x="390" y="517" type="line"/>
      <point x="297" y="517" type="line"/>
      <point x="154" y="294" type="line"/>
      <point x="152" y="294" type="line"/>
      <point x="152" y="517" type="line"/>
      <point x="70" y="517" type="line"/>
    </contour>
    <contour>
      <point x="309" y="0" type="line"/>
      <point x="392" y="0" type="line"/>
      <point x="392" y="184" type="line" smooth="yes"/>
      <point x="392" y="295"/>
      <point x="346" y="362"/>
      <point x="260" y="362" type="curve"/>
      <point x="211" y="300" type="line"/>
      <point x="279" y="300"/>
      <point x="309" y="256"/>
      <point x="309" y="182" type="curve" smooth="yes"/>
    </contour>
  </outline>
</glyph>
<glyph name="loChula-thai" format="2">
  <advance width="506"/>
  <unicode hex="0E2C"/>
  <anchor x="411" y="0" name="bottom"/>
  <outline>
    <contour>
      <point x="94" y="0" type="line"/>
      <point x="175" y="0" type="line"/>
      <point x="224" y="198" type="line" smooth="yes"/>
      <point x="235" y="244"/>
      <point x="242" y="279"/>
      <point x="251" y="342" type="curve"/>
      <point x="254" y="342" type="line"/>
      <point x="262" y="284"/>
      <point x="269" y="253"/>
      <point x="282" y="199" type="curve" smooth="yes"/>
      <point x="329" y="0" type="line"/>
      <point x="411" y="0" type="line"/>
      <point x="461" y="394" type="line" smooth="yes"/>
      <point x="467" y="440"/>
      <point x="459" y="501"/>
      <point x="418" y="525" type="curve"/>
      <point x="418" y="528" type="line"/>
      <point x="474" y="543"/>
      <point x="494" y="598"/>
      <point x="494" y="669" type="curve" smooth="yes"/>
      <point x="494" y="674" type="line"/>
      <point x="414" y="674" type="line"/>
      <point x="414" y="669" type="line" smooth="yes"/>
      <point x="414" y="606"/>
      <point x="395" y="568"/>
      <point x="329" y="568" type="curve" smooth="yes"/>
      <point x="272" y="568" type="line"/>
      <point x="272" y="508" type="line"/>
      <point x="310" y="508" type="line" smooth="yes"/>
      <point x="368" y="508"/>
      <point x="392" y="472"/>
      <point x="381" y="385" type="curve" smooth="yes"/>
      <point x="368" y="287" type="line" smooth="yes"/>
      <point x="360" y="230"/>
      <point x="359" y="168"/>
      <point x="357" y="121" type="curve"/>
      <point x="355" y="121" type="line"/>
      <point x="341" y="196"/>
      <point x="332" y="233"/>
      <point x="321" y="275" type="curve" smooth="yes"/>
      <point x="279" y="430" type="line"/>
      <point x="226" y="430" type="line"/>
      <point x="185" y="275" type="line" smooth="yes"/>
      <point x="174" y="231"/>
      <point x="165" y="196"/>
      <point x="151" y="121" type="curve"/>
      <point x="148" y="121" type="line"/>
      <point x="147" y="194"/>
      <point x="142" y="249"/>
      <point x="139" y="287" type="curve" smooth="yes"/>
      <point x="118" y="517" type="line"/>
      <point x="36" y="517" type="line"/>
    </contour>
  </outline>
</glyph>
<glyph name="oAng-thai" format="2">
  <advance width="433"/>
  <unicode hex="0E2D"/>
  <note>
uni0E2D
</note>
  <anchor x="335" y="0" name="bottom"/>
  <anchor x="349" y="506" name="top"/>
  <outline>
    <contour>
      <point x="209" y="-10" type="curve" smooth="yes"/>
      <point x="335" y="-10"/>
      <point x="384" y="88"/>
      <point x="384" y="255" type="curve" smooth="yes"/>
      <point x="384" y="420"/>
      <point x="331" y="527"/>
      <point x="201" y="527" type="curve" smooth="yes"/>
      <point x="147" y="527"/>
      <point x="94" y="510"/>
      <point x="65" y="490" type="curve"/>
      <point x="65" y="412" type="line"/>
      <point x="99" y="442"/>
      <point x="144" y="457"/>
      <point x="188" y="457" type="curve" smooth="yes"/>
      <point x="271" y="457"/>
      <point x="300" y="394"/>
      <point x="300" y="255" type="curve" smooth="yes"/>
      <point x="300" y="96"/>
      <point x="265" y="59"/>
      <point x="208" y="59" type="curve" smooth="yes"/>
      <point x="156" y="59"/>
      <point x="130" y="92"/>
      <point x="130" y="212" type="curve" smooth="yes"/>
      <point x="130" y="231" type="line"/>
      <point x="211" y="231" type="line"/>
      <point x="211" y="296" type="line"/>
      <point x="53" y="296" type="line"/>
      <point x="51" y="267"/>
      <point x="49" y="237"/>
      <point x="49" y="211" type="curve" smooth="yes"/>
      <point x="49" y="58"/>
      <point x="101" y="-10"/>
    </contour>
  </outline>
</glyph>
<glyph name="hoNokhuk-thai" format="2">
  <advance width="429"/>
  <unicode hex="0E2E"/>
  <anchor x="335" y="0" name="bottom"/>
  <anchor x="344" y="506" name="top"/>
  <outline>
    <contour>
      <point x="209" y="-10" type="curve" smooth="yes"/>
      <point x="335" y="-10"/>
      <point x="384" y="88"/>
      <point x="384" y="254" type="curve" smooth="yes"/>
      <point x="384" y="353"/>
      <point x="365" y="431"/>
      <point x="320" y="467" type="curve"/>
      <point x="294" y="510"/>
      <point x="252" y="527"/>
      <point x="200" y="527" type="curve" smooth="yes"/>
      <point x="148" y="527"/>
      <point x="94" y="510"/>
      <point x="65" y="490" type="curve"/>
      <point x="65" y="412" type="line"/>
      <point x="99" y="442"/>
      <point x="143" y="457"/>
      <point x="188" y="457" type="curve" smooth="yes"/>
      <point x="269" y="457"/>
      <point x="300" y="394"/>
      <point x="300" y="255" type="curve" smooth="yes"/>
      <point x="300" y="96"/>
      <point x="264" y="59"/>
      <point x="208" y="59" type="curve" smooth="yes"/>
      <point x="156" y="59"/>
      <point x="130" y="92"/>
      <point x="130" y="212" type="curve" smooth="yes"/>
      <point x="130" y="231" type="line"/>
      <point x="211" y="231" type="line"/>
      <point x="211" y="296" type="line"/>
      <point x="53" y="296" type="line"/>
      <point x="51" y="267"/>
      <point x="49" y="237"/>
      <point x="49" y="211" type="curve" smooth="yes"/>
      <point x="49" y="58"/>
      <point x="101" y="-10"/>
    </contour>
    <contour>
      <point x="318" y="445" type="line"/>
      <point x="370" y="456"/>
      <point x="400" y="492"/>
      <point x="400" y="551" type="curve"/>
      <point x="325" y="551" type="line"/>
      <point x="324" y="514"/>
      <point x="301" y="494"/>
      <point x="273" y="489" type="curve"/>
    </contour>
  </outline>
</glyph>
<glyph name="paiyannoi-thai" format="2">
  <advance width="396"/>
  <unicode hex="0E2F"/>
  <outline>
    <contour>
      <point x="241" y="0" type="line"/>
      <point x="324" y="0" type="line"/>
      <point x="324" y="517" type="line"/>
      <point x="241" y="517" type="line"/>
      <point x="241" y="403" type="line" smooth="yes"/>
      <point x="241" y="314"/>
      <point x="219" y="278"/>
      <point x="169" y="278" type="curve" smooth="yes"/>
      <point x="126" y="278"/>
      <point x="102" y="311"/>
      <point x="102" y="373" type="curve" smooth="yes"/>
      <point x="102" y="433"/>
      <point x="124" y="458"/>
      <point x="151" y="458" type="curve" smooth="yes"/>
      <point x="158" y="458"/>
      <point x="165" y="457"/>
      <point x="176" y="452" type="curve"/>
      <point x="185" y="516" type="line"/>
      <point x="166" y="525"/>
      <point x="148" y="527"/>
      <point x="135" y="527" type="curve" smooth="yes"/>
      <point x="64" y="527"/>
      <point x="22" y="469"/>
      <point x="22" y="377" type="curve" smooth="yes"/>
      <point x="22" y="266"/>
      <point x="79" y="210"/>
      <point x="153" y="210" type="curve" smooth="yes"/>
      <point x="218" y="210"/>
      <point x="261" y="248"/>
      <point x="265" y="317" type="curve"/>
      <point x="241" y="314" type="line"/>
    </contour>
  </outline>
</glyph>
<glyph name="maiHanaKat-thai" format="2">
  <unicode hex="0E31"/>
  <anchor x="-70" y="506" name="_top"/>
  <anchor x="-54" y="683" name="top"/>
  <outline>
    <contour>
      <point x="-166" y="606" type="curve" smooth="yes"/>
      <point x="15" y="606" type="line"/>
      <point x="15" y="671" type="line"/>
      <point x="-152" y="671" type="line" smooth="yes"/>
      <point x="-171" y="671"/>
      <point x="-178" y="686"/>
      <point x="-178" y="703" type="curve" smooth="yes"/>
      <point x="-178" y="715"/>
      <point x="-176" y="729"/>
      <point x="-174" y="735" type="curve"/>
      <point x="-237" y="747" type="line"/>
      <point x="-245" y="733"/>
      <point x="-250" y="707"/>
      <point x="-250" y="688" type="curve" smooth="yes"/>
      <point x="-250" y="645"/>
      <point x="-228" y="606"/>
    </contour>
  </outline>
</glyph>
<glyph name="saraAa-thai" format="2">
  <advance width="324"/>
  <unicode hex="0E32"/>
  <outline>
    <contour>
      <point x="177" y="0" type="line"/>
      <point x="260" y="0" type="line"/>
      <point x="260" y="380" type="line" smooth="yes"/>
      <point x="260" y="487"/>
      <point x="209" y="527"/>
      <point x="133" y="527" type="curve" smooth="yes"/>
      <point x="84" y="527"/>
      <point x="47" y="511"/>
      <point x="27" y="499" type="curve"/>
      <point x="27" y="423" type="line"/>
      <point x="52" y="444"/>
      <point x="80" y="457"/>
      <point x="113" y="457" type="curve" smooth="yes"/>
      <point x="159" y="457"/>
      <point x="177" y="429"/>
      <point x="177" y="367" type="curve" smooth="yes"/>
    </contour>
  </outline>
</glyph>
<glyph name="saraI-thai" format="2">
  <unicode hex="0E34"/>
  <anchor x="-70" y="506" name="_top"/>
  <anchor x="-70" y="683" name="top"/>
  <outline>
    <contour>
      <point x="-382" y="606" type="line"/>
      <point x="-70" y="606" type="line"/>
      <point x="-70" y="673" type="line"/>
      <point x="-321" y="673" type="line"/>
      <point x="-382" y="643" type="line"/>
    </contour>
  </outline>
</glyph>
<glyph name="saraIi-thai" format="2">
  <unicode hex="0E35"/>
  <anchor x="-70" y="506" name="_top"/>
  <anchor x="-70" y="742" name="top"/>
  <outline>
    <contour>
      <point x="-382" y="606" type="line"/>
      <point x="-70" y="606" type="line"/>
      <point x="-70" y="673" type="line"/>
      <point x="-321" y="673" type="line"/>
      <point x="-382" y="643" type="line"/>
    </contour>
    <contour>
      <point x="-144" y="643" type="line"/>
      <point x="-70" y="643" type="line"/>
      <point x="-70" y="756" type="line"/>
      <point x="-144" y="756" type="line"/>
    </contour>
  </outline>
</glyph>
<glyph name="saraUe-thai" format="2">
  <unicode hex="0E36"/>
  <anchor x="-70" y="506" name="_top"/>
  <anchor x="-73" y="742" name="top"/>
  <outline>
    <contour>
      <point x="-382" y="606" type="line"/>
      <point x="-125" y="606" type="line" smooth="yes"/>
      <point x="-81" y="606"/>
      <point x="-58" y="641"/>
      <point x="-58" y="686" type="curve" smooth="yes"/>
      <point x="-58" y="734"/>
      <point x="-84" y="769"/>
      <point x="-128" y="769" type="curve" smooth="yes"/>
      <point x="-170" y="769"/>
      <point x="-196" y="735"/>
      <point x="-196" y="686" type="curve" smooth="yes"/>
      <point x="-196" y="678"/>
      <point x="-195" y="665"/>
      <point x="-191" y="650" type="curve"/>
      <point x="-177" y="673" type="line"/>
      <point x="-321" y="673" type="line"/>
      <point x="-382" y="643" type="line"/>
    </contour>
    <contour>
      <point x="-128" y="648" type="curve" smooth="yes"/>
      <point x="-148" y="648"/>
      <point x="-158" y="666"/>
      <point x="-158" y="688" type="curve" smooth="yes"/>
      <point x="-158" y="710"/>
      <point x="-147" y="726"/>
      <point x="-128" y="726" type="curve" smooth="yes"/>
      <point x="-109" y="726"/>
      <point x="-97" y="710"/>
      <point x="-97" y="687" type="curve" smooth="yes"/>
      <point x="-97" y="665"/>
      <point x="-108" y="648"/>
    </contour>
  </outline>
</glyph>
<glyph name="saraUee-thai" format="2">
  <unicode hex="0E37"/>
  <anchor x="-71" y="506" name="_top"/>
  <anchor x="-111" y="742" name="top"/>
  <outline>
    <contour>
      <point x="-382" y="606" type="line"/>
      <point x="-70" y="606" type="line"/>
      <point x="-70" y="673" type="line"/>
      <point x="-321" y="673" type="line"/>
      <point x="-382" y="643" type="line"/>
    </contour>
    <contour>
      <point x="-234" y="643" type="line"/>
      <point x="-175" y="643" type="line"/>
      <point x="-175" y="756" type="line"/>
      <point x="-234" y="756" type="line"/>
    </contour>
    <contour>
      <point x="-128" y="643" type="line"/>
      <point x="-70" y="643" type="line"/>
      <point x="-70" y="756" type="line"/>
      <point x="-128" y="756" type="line"/>
    </contour>
  </outline>
</glyph>
<glyph name="saraU-thai" format="2">
  <unicode hex="0E38"/>
  <anchor x="-70" y="0" name="_bottom"/>
  <anchor x="-70" y="-271" name="bottom"/>
  <outline>
    <contour>
      <point x="-142" y="-261" type="line"/>
      <point x="-70" y="-261" type="line"/>
      <point x="-70" y="-125" type="line" smooth="yes"/>
      <point x="-70" y="-87"/>
      <point x="-87" y="-64"/>
      <point x="-125" y="-64" type="curve" smooth="yes"/>
      <point x="-142" y="-64"/>
      <point x="-163" y="-66"/>
      <point x="-177" y="-73" type="curve"/>
      <point x="-172" y="-132" type="line"/>
      <point x="-168" y="-130"/>
      <point x="-163" y="-128"/>
      <point x="-157" y="-128" type="curve" smooth="yes"/>
      <point x="-147" y="-128"/>
      <point x="-142" y="-136"/>
      <point x="-142" y="-153" type="curve" smooth="yes"/>
    </contour>
  </outline>
</glyph>
<glyph name="saraUu-thai" format="2">
  <unicode hex="0E39"/>
  <anchor x="-70" y="0" name="_bottom"/>
  <anchor x="-70" y="-265" name="bottom"/>
  <outline>
    <contour>
      <point x="-170" y="-265" type="curve" smooth="yes"/>
      <point x="-103" y="-265"/>
      <point x="-70" y="-230"/>
      <point x="-70" y="-164" type="curve" smooth="yes"/>
      <point x="-70" y="-67" type="line"/>
      <point x="-140" y="-67" type="line"/>
      <point x="-140" y="-160" type="line" smooth="yes"/>
      <point x="-140" y="-187"/>
      <point x="-147" y="-206"/>
      <point x="-172" y="-206" type="curve" smooth="yes"/>
      <point x="-196" y="-206"/>
      <point x="-204" y="-187"/>
      <point x="-204" y="-160" type="curve" smooth="yes"/>
      <point x="-204" y="-125" type="line" smooth="yes"/>
      <point x="-204" y="-87"/>
      <point x="-219" y="-64"/>
      <point x="-256" y="-64" type="curve" smooth="yes"/>
      <point x="-266" y="-64"/>
      <point x="-286" y="-65"/>
      <point x="-298" y="-70" type="curve"/>
      <point x="-294" y="-129" type="line"/>
      <point x="-279" y="-124"/>
      <point x="-271" y="-127"/>
      <point x="-271" y="-149" type="curve" smooth="yes"/>
      <point x="-271" y="-166" type="line" smooth="yes"/>
      <point x="-271" y="-230"/>
      <point x="-238" y="-265"/>
    </contour>
  </outline>
</glyph>
<glyph name="baht" format="2">
  <advance width="414"/>
  <unicode hex="0E3F"/>
  <outline>
    <contour>
      <point x="53" y="36" type="line"/>
      <point x="218" y="36" type="line" smooth="yes"/>
      <point x="319" y="36"/>
      <point x="381" y="102"/>
      <point x="381" y="218" type="curve" smooth="yes"/>
      <point x="381" y="318"/>
      <point x="344" y="358"/>
      <point x="285" y="372" type="curve"/>
      <point x="285" y="376" type="line"/>
      <point x="338" y="390"/>
      <point x="368" y="442"/>
      <point x="368" y="518" type="curve" smooth="yes"/>
      <point x="368" y="634"/>
      <point x="309" y="677"/>
      <point x="192" y="677" type="curve" smooth="yes"/>
      <point x="53" y="677" type="line"/>
    </contour>
    <contour>
      <point x="130" y="109" type="line"/>
      <point x="130" y="334" type="line"/>
      <point x="207" y="334" type="line" smooth="yes"/>
      <point x="274" y="334"/>
      <point x="301" y="289"/>
      <point x="301" y="225" type="curve" smooth="yes"/>
      <point x="301" y="157"/>
      <point x="276" y="109"/>
      <point x="211" y="109" type="curve" smooth="yes"/>
    </contour>
    <contour>
      <point x="130" y="407" type="line"/>
      <point x="130" y="604" type="line"/>
      <point x="197" y="604" type="line" smooth="yes"/>
      <point x="260" y="604"/>
      <point x="289" y="576"/>
      <point x="289" y="509" type="curve" smooth="yes"/>
      <point x="289" y="443"/>
      <point x="266" y="407"/>
      <point x="203" y="407" type="curve" smooth="yes"/>
    </contour>
    <contour>
      <point x="181" y="-58" type="line"/>
      <point x="229" y="-58" type="line"/>
      <point x="229" y="760" type="line"/>
      <point x="181" y="760" type="line"/>
    </contour>
  </outline>
</glyph>
<glyph name="saraE-thai" format="2">
  <advance width="248"/>
  <unicode hex="0E40"/>
  <outline>
    <contour>
      <point x="165" y="-9" type="curve" smooth="yes"/>
      <point x="185" y="-9"/>
      <point x="205" y="-6"/>
      <point x="223" y="4" type="curve"/>
      <point x="213" y="66" type="line"/>
      <point x="206" y="62"/>
      <point x="196" y="60"/>
      <point x="188" y="60" type="curve" smooth="yes"/>
      <point x="169" y="60"/>
      <point x="160" y="71"/>
      <point x="160" y="100" type="curve" smooth="yes"/>
      <point x="160" y="517" type="line"/>
      <point x="78" y="517" type="line"/>
      <point x="78" y="89" type="line" smooth="yes"/>
      <point x="78" y="12"/>
      <point x="114" y="-9"/>
    </contour>
  </outline>
</glyph>
<glyph name="saraO-thai" format="2">
  <advance width="259"/>
  <unicode hex="0E42"/>
  <outline>
    <contour>
      <point x="90" y="423" type="line"/>
      <point x="172" y="423" type="line"/>
      <point x="172" y="592" type="line" smooth="yes"/>
      <point x="172" y="654"/>
      <point x="157" y="691"/>
      <point x="135" y="710" type="curve"/>
      <point x="136" y="714" type="line"/>
      <point x="269" y="714" type="line"/>
      <point x="269" y="779" type="line"/>
      <point x="83" y="779" type="line"/>
      <point x="22" y="750" type="line"/>
      <point x="22" y="714" type="line"/>
      <point x="63" y="714"/>
      <point x="90" y="684"/>
      <point x="90" y="608" type="curve" smooth="yes"/>
    </contour>
    <component base="saraE-thai" xOffset="12"/>
  </outline>
</glyph>
<glyph name="saraAiMaimuan-thai" format="2">
  <advance width="241"/>
  <unicode hex="0E43"/>
  <outline>
    <contour>
      <point x="158" y="-9" type="curve" smooth="yes"/>
      <point x="178" y="-9"/>
      <point x="198" y="-6"/>
      <point x="216" y="4" type="curve"/>
      <point x="207" y="66" type="line"/>
      <point x="199" y="62"/>
      <point x="189" y="60"/>
      <point x="180" y="60" type="curve" smooth="yes"/>
      <point x="162" y="60"/>
      <point x="153" y="71"/>
      <point x="153" y="100" type="curve" smooth="yes"/>
      <point x="153" y="457" type="line" smooth="yes"/>
      <point x="153" y="503"/>
      <point x="165" y="514"/>
      <point x="189" y="557" type="curve" smooth="yes"/>
      <point x="207" y="588"/>
      <point x="224" y="624"/>
      <point x="224" y="674" type="curve" smooth="yes"/>
      <point x="224" y="750"/>
      <point x="180" y="787"/>
      <point x="112" y="787" type="curve" smooth="yes"/>
      <point x="70" y="787"/>
      <point x="38" y="775"/>
      <point x="25" y="765" type="curve"/>
      <point x="25" y="694" type="line"/>
      <point x="41" y="705"/>
      <point x="63" y="720"/>
      <point x="91" y="720" type="curve" smooth="yes"/>
      <point x="125" y="720"/>
      <point x="141" y="701"/>
      <point x="141" y="666" type="curve" smooth="yes"/>
      <point x="141" y="635"/>
      <point x="128" y="614"/>
      <point x="106" y="575" type="curve" smooth="yes"/>
      <point x="78" y="526"/>
      <point x="71" y="511"/>
      <point x="71" y="459" type="curve" smooth="yes"/>
      <point x="71" y="89" type="line" smooth="yes"/>
      <point x="71" y="12"/>
      <point x="107" y="-9"/>
    </contour>
  </outline>
</glyph>
<glyph name="saraAiMaimalai-thai" format="2">
  <advance width="256"/>
  <unicode hex="0E44"/>
  <outline>
    <contour>
      <point x="89" y="423" type="line"/>
      <point x="171" y="423" type="line"/>
      <point x="171" y="608" type="line" smooth="yes"/>
      <point x="171" y="688"/>
      <point x="202" y="714"/>
      <point x="237" y="714" type="curve"/>
      <point x="237" y="779" type="line"/>
      <point x="25" y="779" type="line"/>
      <point x="8" y="714" type="line"/>
      <point x="125" y="714" type="line"/>
      <point x="126" y="710" type="line"/>
      <point x="107" y="691"/>
      <point x="89" y="663"/>
      <point x="89" y="592" type="curve" smooth="yes"/>
    </contour>
    <component base="saraE-thai" xOffset="11"/>
  </outline>
</glyph>
<glyph name="lakkhangyao-thai" format="2">
  <advance width="324"/>
  <unicode hex="0E45"/>
  <outline>
    <contour>
      <point x="177" y="-190" type="line"/>
      <point x="260" y="-190" type="line"/>
      <point x="260" y="94" type="line"/>
      <point x="177" y="94" type="line"/>
    </contour>
    <component base="saraAa-thai"/>
  </outline>
</glyph>
<glyph name="maiyamok-thai" format="2">
  <advance width="455"/>
  <unicode hex="0E46"/>
  <outline>
    <contour>
      <point x="310" y="-190" type="line"/>
      <point x="391" y="-190" type="line"/>
      <point x="391" y="413" type="line" smooth="yes"/>
      <point x="391" y="500"/>
      <point x="352" y="527"/>
      <point x="304" y="527" type="curve" smooth="yes"/>
      <point x="268" y="527"/>
      <point x="242" y="512"/>
      <point x="230" y="478" type="curve"/>
      <point x="228" y="478" type="line"/>
      <point x="216" y="512"/>
      <point x="189" y="527"/>
      <point x="156" y="527" type="curve" smooth="yes"/>
      <point x="98" y="527"/>
      <point x="60" y="481"/>
      <point x="60" y="363" type="curve" smooth="yes"/>
      <point x="60" y="255"/>
      <point x="94" y="194"/>
      <point x="160" y="194" type="curve" smooth="yes"/>
      <point x="183" y="194"/>
      <point x="201" y="199"/>
      <point x="216" y="209" type="curve"/>
      <point x="201" y="270" type="line"/>
      <point x="193" y="265"/>
      <point x="183" y="263"/>
      <point x="175" y="263" type="curve" smooth="yes"/>
      <point x="150" y="263"/>
      <point x="137" y="287"/>
      <point x="137" y="365" type="curve" smooth="yes"/>
      <point x="137" y="433"/>
      <point x="147" y="458"/>
      <point x="169" y="458" type="curve" smooth="yes"/>
      <point x="188" y="458"/>
      <point x="199" y="442"/>
      <point x="199" y="403" type="curve" smooth="yes"/>
      <point x="199" y="362" type="line"/>
      <point x="250" y="362" type="line"/>
      <point x="250" y="403" type="line" smooth="yes"/>
      <point x="250" y="442"/>
      <point x="261" y="458"/>
      <point x="280" y="458" type="curve" smooth="yes"/>
      <point x="299" y="458"/>
      <point x="310" y="442"/>
      <point x="310" y="403" type="curve" smooth="yes"/>
    </contour>
  </outline>
</glyph>
<glyph name="maitaikhu-thai" format="2">
  <unicode hex="0E47"/>
  <anchor x="-69" y="506" name="_top"/>
  <anchor x="-151" y="815" name="top"/>
  <outline>
    <contour>
      <point x="-149" y="591" type="curve" smooth="yes"/>
      <point x="-107" y="591"/>
      <point x="-80" y="622"/>
      <point x="-80" y="688" type="curve" smooth="yes"/>
      <point x="-80" y="701" type="line"/>
      <point x="-138" y="701" type="line"/>
      <point x="-138" y="688" type="line" smooth="yes"/>
      <point x="-138" y="664"/>
      <point x="-146" y="648"/>
      <point x="-162" y="648" type="curve" smooth="yes"/>
      <point x="-182" y="648"/>
      <point x="-193" y="671"/>
      <point x="-196" y="701" type="curve"/>
      <point x="-209" y="701" type="line"/>
      <point x="-246" y="651" type="line"/>
      <point x="-267" y="651"/>
      <point x="-275" y="671"/>
      <point x="-275" y="699" type="curve" smooth="yes"/>
      <point x="-275" y="738"/>
      <point x="-259" y="756"/>
      <point x="-239" y="756" type="curve" smooth="yes"/>
      <point x="-81" y="756" type="line"/>
      <point x="-81" y="815" type="line"/>
      <point x="-252" y="815" type="line" smooth="yes"/>
      <point x="-296" y="815"/>
      <point x="-336" y="779"/>
      <point x="-336" y="704" type="curve" smooth="yes"/>
      <point x="-336" y="632"/>
      <point x="-299" y="594"/>
      <point x="-243" y="594" type="curve"/>
      <point x="-208" y="637" type="line"/>
      <point x="-196" y="605"/>
      <point x="-177" y="591"/>
    </contour>
  </outline>
</glyph>
<glyph name="maiEk-thai" format="2">
  <unicode hex="0E48"/>
  <anchor x="-70" y="506" name="_top"/>
  <anchor x="-70" y="815" name="top"/>
  <outline>
    <contour>
      <point x="-150" y="606" type="line"/>
      <point x="-72" y="606" type="line"/>
      <point x="-72" y="815" type="line"/>
      <point x="-150" y="815" type="line"/>
    </contour>
  </outline>
</glyph>
<glyph name="maiTho-thai" format="2">
  <unicode hex="0E49"/>
  <anchor x="-69" y="507" name="_top"/>
  <anchor x="-125" y="815" name="top"/>
  <outline>
    <contour>
      <point x="-272" y="606" type="line"/>
      <point x="-49" y="606" type="line"/>
      <point x="-49" y="673" type="line"/>
      <point x="-184" y="673" type="line"/>
      <point x="-179" y="650" type="line"/>
      <point x="-160" y="666"/>
      <point x="-146" y="694"/>
      <point x="-146" y="732" type="curve" smooth="yes"/>
      <point x="-146" y="775"/>
      <point x="-170" y="809"/>
      <point x="-209" y="809" type="curve" smooth="yes"/>
      <point x="-226" y="809"/>
      <point x="-254" y="804"/>
      <point x="-274" y="783" type="curve"/>
      <point x="-260" y="730" type="line"/>
      <point x="-253" y="734"/>
      <point x="-243" y="741"/>
      <point x="-234" y="741" type="curve" smooth="yes"/>
      <point x="-221" y="741"/>
      <point x="-214" y="728"/>
      <point x="-214" y="712" type="curve" smooth="yes"/>
      <point x="-214" y="675"/>
      <point x="-248" y="658"/>
      <point x="-272" y="650" type="curve"/>
    </contour>
  </outline>
</glyph>
<glyph name="maiTri-thai" format="2">
  <unicode hex="0E4A"/>
  <anchor x="-70" y="506" name="_top"/>
  <anchor x="-148" y="815" name="top"/>
  <outline>
    <contour>
      <point x="-243" y="601" type="curve" smooth="yes"/>
      <point x="-228" y="601"/>
      <point x="-213" y="605"/>
      <point x="-205" y="611" type="curve"/>
      <point x="-212" y="656" type="line"/>
      <point x="-218" y="652"/>
      <point x="-224" y="651"/>
      <point x="-228" y="651" type="curve" smooth="yes"/>
      <point x="-244" y="651"/>
      <point x="-255" y="668"/>
      <point x="-255" y="701" type="curve" smooth="yes"/>
      <point x="-255" y="735"/>
      <point x="-243" y="744"/>
      <point x="-235" y="747" type="curve"/>
      <point x="-204" y="717" type="line"/>
      <point x="-200" y="717" type="line"/>
      <point x="-170" y="747" type="line"/>
      <point x="-160" y="745"/>
      <point x="-147" y="733"/>
      <point x="-147" y="700" type="curve" smooth="yes"/>
      <point x="-147" y="669"/>
      <point x="-159" y="654"/>
      <point x="-172" y="646" type="curve"/>
      <point x="-172" y="606" type="line"/>
      <point x="-36" y="606" type="line"/>
      <point x="-36" y="668" type="line"/>
      <point x="-107" y="668" type="line"/>
      <point x="-104" y="654" type="line"/>
      <point x="-92" y="670"/>
      <point x="-85" y="690"/>
      <point x="-85" y="716" type="curve" smooth="yes"/>
      <point x="-85" y="762"/>
      <point x="-106" y="800"/>
      <point x="-163" y="807" type="curve"/>
      <point x="-202" y="771" type="line"/>
      <point x="-244" y="807" type="line"/>
      <point x="-291" y="800"/>
      <point x="-319" y="765"/>
      <point x="-319" y="702" type="curve" smooth="yes"/>
      <point x="-319" y="640"/>
      <point x="-291" y="601"/>
    </contour>
  </outline>
</glyph>
<glyph name="maiChattawa-thai" format="2">
  <unicode hex="0E4B"/>
  <anchor x="-69" y="506" name="_top"/>
  <anchor x="-116" y="815" name="top"/>
  <outline>
    <contour>
      <point x="-190" y="606" type="line"/>
      <point x="-122" y="606" type="line"/>
      <point x="-122" y="815" type="line"/>
      <point x="-190" y="815" type="line"/>
    </contour>
    <contour>
      <point x="-242" y="678" type="line"/>
      <point x="-70" y="678" type="line"/>
      <point x="-70" y="740" type="line"/>
      <point x="-242" y="740" type="line"/>
    </contour>
  </outline>
</glyph>
<glyph name="thanthakhat-thai" format="2">
  <unicode hex="0E4C"/>
  <anchor x="-70" y="506" name="_top"/>
  <anchor x="-80" y="741" name="top"/>
  <outline>
    <contour>
      <point x="-193" y="576" type="curve"/>
      <point x="-125" y="588" type="line"/>
      <point x="-129" y="598"/>
      <point x="-131" y="609"/>
      <point x="-131" y="619" type="curve" smooth="yes"/>
      <point x="-131" y="643"/>
      <point x="-120" y="652"/>
      <point x="-101" y="652" type="curve" smooth="yes"/>
      <point x="-27" y="652" type="line"/>
      <point x="-27" y="718" type="line"/>
      <point x="-126" y="718" type="line" smooth="yes"/>
      <point x="-188" y="718"/>
      <point x="-205" y="679"/>
      <point x="-205" y="637" type="curve" smooth="yes"/>
      <point x="-205" y="615"/>
      <point x="-200" y="590"/>
    </contour>
  </outline>
</glyph>
<glyph name="nikhahit-thai" format="2">
  <unicode hex="0E4D"/>
  <anchor x="-70" y="506" name="_top"/>
  <anchor x="-95" y="742" name="top"/>
  <outline>
    <contour>
      <point x="-134" y="582" type="curve" smooth="yes"/>
      <point x="-83" y="582"/>
      <point x="-51" y="614"/>
      <point x="-51" y="671" type="curve" smooth="yes"/>
      <point x="-51" y="728"/>
      <point x="-83" y="760"/>
      <point x="-134" y="760" type="curve" smooth="yes"/>
      <point x="-184" y="760"/>
      <point x="-216" y="728"/>
      <point x="-216" y="671" type="curve" smooth="yes"/>
      <point x="-216" y="614"/>
      <point x="-184" y="582"/>
    </contour>
    <contour>
      <point x="-134" y="628" type="curve" smooth="yes"/>
      <point x="-155" y="628"/>
      <point x="-167" y="645"/>
      <point x="-167" y="671" type="curve" smooth="yes"/>
      <point x="-167" y="697"/>
      <point x="-155" y="714"/>
      <point x="-134" y="714" type="curve" smooth="yes"/>
      <point x="-112" y="714"/>
      <point x="-100" y="697"/>
      <point x="-100" y="671" type="curve" smooth="yes"/>
      <point x="-100" y="645"/>
      <point x="-112" y="628"/>
    </contour>
  </outline>
</glyph>
<glyph name="yamakkan-thai" format="2">
  <unicode hex="0E4E"/>
  <anchor x="-70" y="506" name="_top"/>
  <anchor x="-77" y="736" name="top"/>
  <outline>
    <contour>
      <point x="-197" y="576" type="curve"/>
      <point x="-147" y="586" type="line"/>
      <point x="-149" y="595"/>
      <point x="-151" y="604"/>
      <point x="-151" y="613" type="curve" smooth="yes"/>
      <point x="-151" y="629"/>
      <point x="-144" y="645"/>
      <point x="-127" y="645" type="curve" smooth="yes"/>
      <point x="-122" y="645"/>
      <point x="-112" y="644"/>
      <point x="-104" y="633" type="curve"/>
      <point x="-81" y="652" type="line"/>
      <point x="-84" y="660"/>
      <point x="-86" y="670"/>
      <point x="-86" y="679" type="curve" smooth="yes"/>
      <point x="-86" y="700"/>
      <point x="-74" y="714"/>
      <point x="-55" y="714" type="curve" smooth="yes"/>
      <point x="-49" y="714"/>
      <point x="-39" y="713"/>
      <point x="-31" y="709" type="curve"/>
      <point x="-31" y="760" type="line"/>
      <point x="-43" y="767"/>
      <point x="-60" y="770"/>
      <point x="-71" y="770" type="curve" smooth="yes"/>
      <point x="-102" y="770"/>
      <point x="-130" y="750"/>
      <point x="-130" y="709" type="curve" smooth="yes"/>
      <point x="-130" y="692"/>
      <point x="-127" y="677"/>
      <point x="-121" y="666" type="curve"/>
      <point x="-111" y="675" type="line"/>
      <point x="-121" y="686"/>
      <point x="-130" y="696"/>
      <point x="-150" y="696" type="curve" smooth="yes"/>
      <point x="-182" y="696"/>
      <point x="-207" y="673"/>
      <point x="-207" y="629" type="curve" smooth="yes"/>
      <point x="-207" y="610"/>
      <point x="-203" y="588"/>
    </contour>
  </outline>
</glyph>
<glyph name="zero-thai" format="2">
  <advance width="424"/>
  <unicode hex="0E50"/>
  <outline>
    <contour>
      <point x="212" y="-10" type="curve" smooth="yes"/>
      <point x="318" y="-10"/>
      <point x="376" y="80"/>
      <point x="376" y="228" type="curve" smooth="yes"/>
      <point x="376" y="382"/>
      <point x="318" y="465"/>
      <point x="212" y="465" type="curve" smooth="yes"/>
      <point x="106" y="465"/>
      <point x="48" y="382"/>
      <point x="48" y="228" type="curve" smooth="yes"/>
      <point x="48" y="80"/>
      <point x="106" y="-10"/>
    </contour>
    <contour>
      <point x="212" y="60" type="curve" smooth="yes"/>
      <point x="157" y="60"/>
      <point x="129" y="118"/>
      <point x="129" y="228" type="curve" smooth="yes"/>
      <point x="129" y="345"/>
      <point x="157" y="395"/>
      <point x="212" y="395" type="curve" smooth="yes"/>
      <point x="266" y="395"/>
      <point x="295" y="345"/>
      <point x="295" y="228" type="curve" smooth="yes"/>
      <point x="295" y="118"/>
      <point x="266" y="60"/>
    </contour>
  </outline>
</glyph>
<glyph name="one-thai" format="2">
  <advance width="403"/>
  <unicode hex="0E51"/>
  <outline>
    <contour>
      <point x="199" y="-10" type="curve" smooth="yes"/>
      <point x="310" y="-10"/>
      <point x="355" y="98"/>
      <point x="355" y="237" type="curve" smooth="yes"/>
      <point x="355" y="380"/>
      <point x="308" y="465"/>
      <point x="193" y="465" type="curve" smooth="yes"/>
      <point x="95" y="465"/>
      <point x="44" y="404"/>
      <point x="44" y="284" type="curve" smooth="yes"/>
      <point x="44" y="190"/>
      <point x="79" y="120"/>
      <point x="141" y="120" type="curve" smooth="yes"/>
      <point x="161" y="120"/>
      <point x="181" y="124"/>
      <point x="191" y="132" type="curve"/>
      <point x="179" y="198" type="line"/>
      <point x="174" y="195"/>
      <point x="166" y="194"/>
      <point x="161" y="194" type="curve" smooth="yes"/>
      <point x="137" y="194"/>
      <point x="120" y="227"/>
      <point x="120" y="285" type="curve" smooth="yes"/>
      <point x="120" y="358"/>
      <point x="146" y="395"/>
      <point x="193" y="395" type="curve" smooth="yes"/>
      <point x="247" y="395"/>
      <point x="274" y="350"/>
      <point x="274" y="233" type="curve" smooth="yes"/>
      <point x="274" y="122"/>
      <point x="245" y="60"/>
      <point x="181" y="60" type="curve" smooth="yes"/>
      <point x="165" y="60"/>
      <point x="149" y="64"/>
      <point x="140" y="69" type="curve"/>
      <point x="140" y="1" type="line"/>
      <point x="155" y="-5"/>
      <point x="177" y="-10"/>
    </contour>
  </outline>
</glyph>
<glyph name="two-thai" format="2">
  <advance width="464"/>
  <unicode hex="0E52"/>
  <outline>
    <contour>
      <point x="237" y="-10" type="curve" smooth="yes"/>
      <point x="368" y="-10"/>
      <point x="414" y="75"/>
      <point x="414" y="218" type="curve" smooth="yes"/>
      <point x="414" y="346" type="line" smooth="yes"/>
      <point x="414" y="436"/>
      <point x="380" y="461"/>
      <point x="343" y="461" type="curve" smooth="yes"/>
      <point x="316" y="461"/>
      <point x="297" y="447"/>
      <point x="286" y="409" type="curve"/>
      <point x="284" y="409" type="line"/>
      <point x="275" y="447"/>
      <point x="254" y="461"/>
      <point x="229" y="461" type="curve" smooth="yes"/>
      <point x="182" y="461"/>
      <point x="158" y="416"/>
      <point x="158" y="334" type="curve" smooth="yes"/>
      <point x="158" y="260"/>
      <point x="183" y="196"/>
      <point x="241" y="196" type="curve" smooth="yes"/>
      <point x="258" y="196"/>
      <point x="270" y="201"/>
      <point x="283" y="211" type="curve"/>
      <point x="270" y="270" type="line"/>
      <point x="262" y="265"/>
      <point x="255" y="262"/>
      <point x="249" y="262" type="curve" smooth="yes"/>
      <point x="227" y="262"/>
      <point x="222" y="292"/>
      <point x="222" y="329" type="curve" smooth="yes"/>
      <point x="222" y="375"/>
      <point x="229" y="395"/>
      <point x="243" y="395" type="curve" smooth="yes"/>
      <point x="259" y="395"/>
      <point x="264" y="375"/>
      <point x="265" y="338" type="curve"/>
      <point x="299" y="338" type="line"/>
      <point x="300" y="372"/>
      <point x="304" y="395"/>
      <point x="320" y="395" type="curve" smooth="yes"/>
      <point x="333" y="395"/>
      <point x="340" y="380"/>
      <point x="340" y="338" type="curve" smooth="yes"/>
      <point x="340" y="223" type="line" smooth="yes"/>
      <point x="340" y="135"/>
      <point x="320" y="60"/>
      <point x="237" y="60" type="curve" smooth="yes"/>
      <point x="154" y="60"/>
      <point x="127" y="135"/>
      <point x="127" y="223" type="curve" smooth="yes"/>
      <point x="127" y="584" type="line"/>
      <point x="50" y="584" type="line"/>
      <point x="50" y="218" type="line" smooth="yes"/>
      <point x="50" y="75"/>
      <point x="106" y="-10"/>
    </contour>
  </outline>
</glyph>
<glyph name="three-thai" format="2">
  <advance width="419"/>
  <unicode hex="0E53"/>
  <outline>
    <contour>
      <point x="160" y="-10" type="curve" smooth="yes"/>
      <point x="179" y="-10"/>
      <point x="200" y="-5"/>
      <point x="213" y="1" type="curve"/>
      <point x="204" y="65" type="line"/>
      <point x="196" y="60"/>
      <point x="187" y="58"/>
      <point x="181" y="58" type="curve" smooth="yes"/>
      <point x="143" y="58"/>
      <point x="127" y="121"/>
      <point x="127" y="240" type="curve" smooth="yes"/>
      <point x="127" y="342"/>
      <point x="139" y="397"/>
      <point x="165" y="397" type="curve" smooth="yes"/>
      <point x="177" y="397"/>
      <point x="189" y="384"/>
      <point x="192" y="336" type="curve"/>
      <point x="230" y="336" type="line"/>
      <point x="233" y="385"/>
      <point x="244" y="397"/>
      <point x="260" y="397" type="curve" smooth="yes"/>
      <point x="274" y="397"/>
      <point x="288" y="389"/>
      <point x="288" y="337" type="curve" smooth="yes"/>
      <point x="288" y="0" type="line"/>
      <point x="366" y="0" type="line"/>
      <point x="366" y="336" type="line" smooth="yes"/>
      <point x="366" y="430"/>
      <point x="334" y="465"/>
      <point x="281" y="465" type="curve" smooth="yes"/>
      <point x="252" y="465"/>
      <point x="223" y="452"/>
      <point x="213" y="414" type="curve"/>
      <point x="211" y="414" type="line"/>
      <point x="198" y="452"/>
      <point x="174" y="465"/>
      <point x="148" y="465" type="curve" smooth="yes"/>
      <point x="82" y="465"/>
      <point x="48" y="390"/>
      <point x="48" y="238" type="curve" smooth="yes"/>
      <point x="48" y="98"/>
      <point x="78" y="-10"/>
    </contour>
  </outline>
</glyph>
<glyph name="four-thai" format="2">
  <advance width="402"/>
  <unicode hex="0E54"/>
  <outline>
    <contour>
      <point x="193" y="0" type="curve" smooth="yes"/>
      <point x="361" y="0" type="line"/>
      <point x="361" y="66" type="line"/>
      <point x="333" y="66" type="line" smooth="yes"/>
      <point x="303" y="66"/>
      <point x="283" y="95"/>
      <point x="283" y="150" type="curve" smooth="yes"/>
      <point x="283" y="194"/>
      <point x="294" y="221"/>
      <point x="312" y="221" type="curve" smooth="yes"/>
      <point x="316" y="221"/>
      <point x="323" y="220"/>
      <point x="327" y="217" type="curve"/>
      <point x="343" y="274" type="line"/>
      <point x="331" y="281"/>
      <point x="314" y="286"/>
      <point x="296" y="286" type="curve" smooth="yes"/>
      <point x="244" y="286"/>
      <point x="216" y="240"/>
      <point x="216" y="153" type="curve" smooth="yes"/>
      <point x="216" y="105"/>
      <point x="224" y="74"/>
      <point x="243" y="52" type="curve"/>
      <point x="254" y="69" type="line"/>
      <point x="201" y="69" type="line" smooth="yes"/>
      <point x="149" y="69"/>
      <point x="127" y="112"/>
      <point x="127" y="222" type="curve" smooth="yes"/>
      <point x="127" y="327"/>
      <point x="150" y="390"/>
      <point x="211" y="390" type="curve" smooth="yes"/>
      <point x="240" y="390" type="line" smooth="yes"/>
      <point x="317" y="390"/>
      <point x="348" y="443"/>
      <point x="348" y="548" type="curve" smooth="yes"/>
      <point x="348" y="584" type="line"/>
      <point x="274" y="584" type="line"/>
      <point x="274" y="553" type="line" smooth="yes"/>
      <point x="274" y="481"/>
      <point x="263" y="460"/>
      <point x="213" y="460" type="curve" smooth="yes"/>
      <point x="186" y="460" type="line" smooth="yes"/>
      <point x="84" y="460"/>
      <point x="48" y="349"/>
      <point x="48" y="222" type="curve" smooth="yes"/>
      <point x="48" y="68"/>
      <point x="95" y="0"/>
    </contour>
  </outline>
</glyph>
<glyph name="seven-thai" format="2">
  <advance width="540"/>
  <unicode hex="0E57"/>
  <outline>
    <contour>
      <point x="162" y="-10" type="curve" smooth="yes"/>
      <point x="180" y="-10"/>
      <point x="200" y="-5"/>
      <point x="213" y="1" type="curve"/>
      <point x="204" y="65" type="line"/>
      <point x="196" y="60"/>
      <point x="187" y="58"/>
      <point x="180" y="58" type="curve" smooth="yes"/>
      <point x="141" y="58"/>
      <point x="127" y="116"/>
      <point x="127" y="248" type="curve" smooth="yes"/>
      <point x="127" y="345"/>
      <point x="135" y="397"/>
      <point x="162" y="397" type="curve" smooth="yes"/>
      <point x="177" y="397"/>
      <point x="184" y="380"/>
      <point x="187" y="336" type="curve"/>
      <point x="223" y="336" type="line"/>
      <point x="226" y="379"/>
      <point x="233" y="397"/>
      <point x="251" y="397" type="curve" smooth="yes"/>
      <point x="266" y="397"/>
      <point x="276" y="384"/>
      <point x="276" y="343" type="curve" smooth="yes"/>
      <point x="276" y="0" type="line"/>
      <point x="340" y="0" type="line" smooth="yes"/>
      <point x="409" y="0"/>
      <point x="486" y="42"/>
      <point x="486" y="179" type="curve" smooth="yes"/>
      <point x="486" y="584" type="line"/>
      <point x="409" y="584" type="line"/>
      <point x="409" y="183" type="line" smooth="yes"/>
      <point x="409" y="101"/>
      <point x="388" y="71"/>
      <point x="351" y="71" type="curve"/>
      <point x="351" y="353" type="line" smooth="yes"/>
      <point x="351" y="437"/>
      <point x="320" y="465"/>
      <point x="274" y="465" type="curve" smooth="yes"/>
      <point x="246" y="465"/>
      <point x="219" y="454"/>
      <point x="207" y="414" type="curve"/>
      <point x="205" y="414" type="line"/>
      <point x="193" y="452"/>
      <point x="172" y="465"/>
      <point x="145" y="465" type="curve" smooth="yes"/>
      <point x="83" y="465"/>
      <point x="48" y="410"/>
      <point x="48" y="244" type="curve" smooth="yes"/>
      <point x="48" y="94"/>
      <point x="78" y="-10"/>
    </contour>
  </outline>
</glyph>
<glyph name="eight-thai" format="2">
  <advance width="422"/>
  <unicode hex="0E58"/>
  <outline>
    <contour>
      <point x="281" y="-10" type="curve" smooth="yes"/>
      <point x="341" y="-10"/>
      <point x="379" y="48"/>
      <point x="379" y="142" type="curve" smooth="yes"/>
      <point x="379" y="208"/>
      <point x="365" y="257"/>
      <point x="329" y="283" type="curve"/>
      <point x="282" y="223" type="line"/>
      <point x="293" y="209"/>
      <point x="308" y="189"/>
      <point x="308" y="137" type="curve" smooth="yes"/>
      <point x="308" y="85"/>
      <point x="293" y="59"/>
      <point x="270" y="59" type="curve" smooth="yes"/>
      <point x="246" y="59"/>
      <point x="233" y="83"/>
      <point x="233" y="141" type="curve"/>
      <point x="196" y="141" type="line"/>
      <point x="161" y="75" type="line"/>
      <point x="141" y="83"/>
      <point x="125" y="117"/>
      <point x="125" y="222" type="curve" smooth="yes"/>
      <point x="125" y="326"/>
      <point x="147" y="390"/>
      <point x="203" y="390" type="curve" smooth="yes"/>
      <point x="248" y="390" type="line" smooth="yes"/>
      <point x="325" y="390"/>
      <point x="356" y="443"/>
      <point x="356" y="548" type="curve" smooth="yes"/>
      <point x="356" y="584" type="line"/>
      <point x="279" y="584" type="line"/>
      <point x="279" y="553" type="line" smooth="yes"/>
      <point x="279" y="481"/>
      <point x="269" y="460"/>
      <point x="221" y="460" type="curve" smooth="yes"/>
      <point x="191" y="460" type="line" smooth="yes"/>
      <point x="81" y="460"/>
      <point x="48" y="351"/>
      <point x="48" y="219" type="curve" smooth="yes"/>
      <point x="48" y="66"/>
      <point x="93" y="-6"/>
      <point x="166" y="-6" type="curve"/>
      <point x="215" y="81" type="line"/>
      <point x="202" y="81" type="line"/>
      <point x="208" y="18"/>
      <point x="237" y="-10"/>
    </contour>
  </outline>
</glyph>
<glyph name="angkhankhu-thai" format="2">
  <advance width="583"/>
  <unicode hex="0E5A"/>
  <outline>
    <contour>
      <point x="241" y="-1" type="line"/>
      <point x="324" y="-1" type="line"/>
      <point x="324" y="517" type="line"/>
      <point x="241" y="517" type="line"/>
      <point x="241" y="395" type="line" smooth="yes"/>
      <point x="241" y="316"/>
      <point x="219" y="278"/>
      <point x="171" y="278" type="curve" smooth="yes"/>
      <point x="125" y="278"/>
      <point x="102" y="311"/>
      <point x="102" y="373" type="curve" smooth="yes"/>
      <point x="102" y="432"/>
      <point x="124" y="458"/>
      <point x="152" y="458" type="curve" smooth="yes"/>
      <point x="158" y="458"/>
      <point x="165" y="457"/>
      <point x="176" y="452" type="curve"/>
      <point x="185" y="516" type="line"/>
      <point x="166" y="525"/>
      <point x="148" y="527"/>
      <point x="135" y="527" type="curve" smooth="yes"/>
      <point x="64" y="527"/>
      <point x="22" y="469"/>
      <point x="22" y="377" type="curve" smooth="yes"/>
      <point x="22" y="266"/>
      <point x="79" y="210"/>
      <point x="155" y="210" type="curve" smooth="yes"/>
      <point x="215" y="210"/>
      <point x="261" y="245"/>
      <point x="265" y="333" type="curve"/>
      <point x="241" y="333" type="line"/>
    </contour>
    <contour>
      <point x="428" y="-1" type="line"/>
      <point x="511" y="-1" type="line"/>
      <point x="511" y="517" type="line"/>
      <point x="428" y="517" type="line"/>
      <point x="428" y="405" type="line" smooth="yes"/>
      <point x="428" y="327"/>
      <point x="400" y="288"/>
      <point x="354" y="288" type="curve" smooth="yes"/>
      <point x="332" y="288"/>
      <point x="318" y="296"/>
      <point x="306" y="305" type="curve"/>
      <point x="285" y="251" type="line"/>
      <point x="304" y="230"/>
      <point x="327" y="219"/>
      <point x="355" y="219" type="curve" smooth="yes"/>
      <point x="402" y="219"/>
      <point x="447" y="257"/>
      <point x="450" y="343" type="curve"/>
      <point x="428" y="343" type="line"/>
    </contour>
  </outline>
</glyph>
<glyph name="khomut-thai" format="2">
  <advance width="649"/>
  <unicode hex="0E5B"/>
  <outline>
    <contour>
      <point x="181" y="70" type="curve" smooth="yes"/>
      <point x="302" y="70"/>
      <point x="326" y="200"/>
      <point x="331" y="266" type="curve"/>
      <point x="313" y="266" type="line"/>
      <point x="351" y="123" type="line"/>
      <point x="394" y="123" type="line"/>
      <point x="422" y="272" type="line"/>
      <point x="406" y="272" type="line"/>
      <point x="443" y="133" type="line"/>
      <point x="480" y="133" type="line"/>
      <point x="503" y="258" type="line"/>
      <point x="483" y="258" type="line"/>
      <point x="496" y="183"/>
      <point x="526" y="143"/>
      <point x="567" y="143" type="curve" smooth="yes"/>
      <point x="581" y="143"/>
      <point x="591" y="148"/>
      <point x="599" y="154" type="curve"/>
      <point x="599" y="211" type="line"/>
      <point x="594" y="207"/>
      <point x="587" y="204"/>
      <point x="576" y="204" type="curve" smooth="yes"/>
      <point x="537" y="204"/>
      <point x="535" y="242"/>
      <point x="522" y="294" type="curve" smooth="yes"/>
      <point x="518" y="310" type="line"/>
      <point x="480" y="310" type="line"/>
      <point x="453" y="184" type="line"/>
      <point x="470" y="185" type="line"/>
      <point x="435" y="319" type="line"/>
      <point x="392" y="319" type="line"/>
      <point x="364" y="177" type="line"/>
      <point x="381" y="177" type="line"/>
      <point x="337" y="327" type="line"/>
      <point x="285" y="327" type="line"/>
      <point x="288" y="223"/>
      <point x="260" y="138"/>
      <point x="190" y="138" type="curve" smooth="yes"/>
      <point x="147" y="138"/>
      <point x="119" y="171"/>
      <point x="119" y="259" type="curve" smooth="yes"/>
      <point x="119" y="308"/>
      <point x="128" y="346"/>
      <point x="155" y="346" type="curve" smooth="yes"/>
      <point x="175" y="346"/>
      <point x="190" y="330"/>
      <point x="190" y="291" type="curve" smooth="yes"/>
      <point x="190" y="271"/>
      <point x="186" y="252"/>
      <point x="182" y="244" type="curve"/>
      <point x="234" y="212" type="line"/>
      <point x="244" y="231"/>
      <point x="251" y="264"/>
      <point x="251" y="300" type="curve" smooth="yes"/>
      <point x="251" y="371"/>
      <point x="217" y="412"/>
      <point x="154" y="412" type="curve" smooth="yes"/>
      <point x="75" y="412"/>
      <point x="45" y="338"/>
      <point x="45" y="254" type="curve" smooth="yes"/>
      <point x="45" y="138"/>
      <point x="93" y="70"/>
    </contour>
  </outline>
</glyph>
<glyph name="uni200C" format="2">
  <unicode hex="200C"/>
  <outline>
    <contour>
      <point x="-21" y="-133" type="line"/>
      <point x="21" y="-133" type="line"/>
      <point x="21" y="628" type="line"/>
      <point x="-21" y="628" type="line"/>
    </contour>
  </outline>
</glyph>
<glyph name="hyphentwo" format="2">
  <advance width="274"/>
  <unicode hex="2010"/>
  <outline>
    <contour>
      <point x="27" y="229" type="line"/>
      <point x="247" y="229" type="line"/>
      <point x="247" y="310" type="line"/>
      <point x="27" y="310" type="line"/>
    </contour>
  </outline>
</glyph>
<glyph name="loChula-thai.short" format="2">
  <advance width="500"/>
  <anchor x="407" y="0" name="bottom"/>
  <anchor x="423" y="506" name="top"/>
  <outline>
    <contour>
      <point x="86" y="0" type="line"/>
      <point x="171" y="0" type="line"/>
      <point x="218" y="180" type="line" smooth="yes"/>
      <point x="230" y="227"/>
      <point x="239" y="272"/>
      <point x="246" y="312" type="curve"/>
      <point x="249" y="312" type="line"/>
      <point x="256" y="272"/>
      <point x="265" y="227"/>
      <point x="277" y="180" type="curve" smooth="yes"/>
      <point x="323" y="0" type="line"/>
      <point x="408" y="0" type="line"/>
      <point x="450" y="349" type="line" smooth="yes"/>
      <point x="455" y="394"/>
      <point x="447" y="435"/>
      <point x="411" y="449" type="curve"/>
      <point x="411" y="453" type="line"/>
      <point x="460" y="462"/>
      <point x="478" y="503"/>
      <point x="478" y="551" type="curve"/>
      <point x="397" y="551" type="line"/>
      <point x="395" y="515"/>
      <point x="389" y="493"/>
      <point x="353" y="493" type="curve" smooth="yes"/>
      <point x="291" y="493" type="line"/>
      <point x="291" y="432" type="line"/>
      <point x="330" y="432" type="line" smooth="yes"/>
      <point x="372" y="432"/>
      <point x="382" y="399"/>
      <point x="374" y="345" type="curve" smooth="yes"/>
      <point x="368" y="302" type="line" smooth="yes"/>
      <point x="360" y="246"/>
      <point x="357" y="199"/>
      <point x="352" y="113" type="curve"/>
      <point x="349" y="113" type="line"/>
      <point x="334" y="186"/>
      <point x="320" y="251"/>
      <point x="308" y="287" type="curve" smooth="yes"/>
      <point x="274" y="392" type="line"/>
      <point x="218" y="392" type="line"/>
      <point x="189" y="287" type="line" smooth="yes"/>
      <point x="168" y="210"/>
      <point x="157" y="161"/>
      <point x="150" y="122" type="curve"/>
      <point x="147" y="122" type="line"/>
      <point x="145" y="192"/>
      <point x="144" y="237"/>
      <point x="138" y="305" type="curve" smooth="yes"/>
      <point x="120" y="517" type="line"/>
      <point x="36" y="517" type="line"/>
    </contour>
  </outline>
</glyph>
<glyph name="lu_lakkhangyao-thai" format="2">
  <advance width="700"/>
  <outline>
    <contour>
      <point x="312" y="-190" type="line"/>
      <point x="395" y="-190" type="line"/>
      <point x="395" y="335" type="line" smooth="yes"/>
      <point x="395" y="425"/>
      <point x="428" y="457"/>
      <point x="474" y="457" type="curve" smooth="yes"/>
      <point x="520" y="457"/>
      <point x="553" y="427"/>
      <point x="553" y="340" type="curve" smooth="yes"/>
      <point x="553" y="-190" type="line"/>
      <point x="636" y="-190" type="line"/>
      <point x="636" y="348" type="line" smooth="yes"/>
      <point x="636" y="463"/>
      <point x="586" y="527"/>
      <point x="491" y="527" type="curve" smooth="yes"/>
      <point x="426" y="527"/>
      <point x="381" y="494"/>
      <point x="360" y="440" type="curve"/>
      <point x="358" y="440" type="line"/>
      <point x="337" y="494"/>
      <point x="293" y="527"/>
      <point x="225" y="527" type="curve" smooth="yes"/>
      <point x="119" y="527"/>
      <point x="58" y="454"/>
      <point x="58" y="377" type="curve" smooth="yes"/>
      <point x="58" y="346" type="line"/>
      <point x="138" y="306" type="line"/>
      <point x="137" y="303" type="line"/>
      <point x="98" y="290"/>
      <point x="76" y="261"/>
      <point x="76" y="183" type="curve" smooth="yes"/>
      <point x="76" y="95" type="line" smooth="yes"/>
      <point x="76" y="69"/>
      <point x="70" y="58"/>
      <point x="55" y="58" type="curve" smooth="yes"/>
      <point x="47" y="58"/>
      <point x="40" y="61"/>
      <point x="34" y="64" type="curve"/>
      <point x="25" y="4" type="line"/>
      <point x="42" y="-5"/>
      <point x="60" y="-9"/>
      <point x="81" y="-9" type="curve" smooth="yes"/>
      <point x="125" y="-9"/>
      <point x="158" y="11"/>
      <point x="158" y="88" type="curve" smooth="yes"/>
      <point x="158" y="180" type="line" smooth="yes"/>
      <point x="158" y="248"/>
      <point x="177" y="277"/>
      <point x="208" y="277" type="curve"/>
      <point x="215" y="322" type="line"/>
      <point x="142" y="372" type="line"/>
      <point x="143" y="421"/>
      <point x="172" y="457"/>
      <point x="225" y="457" type="curve" smooth="yes"/>
      <point x="276" y="457"/>
      <point x="312" y="424"/>
      <point x="312" y="332" type="curve" smooth="yes"/>
    </contour>
  </outline>
</glyph>
<glyph name="macronbelowcomb.alt" format="2">
  <anchor x="-86" y="0" name="_bottom"/>
  <outline>
    <contour>
      <point x="-120" y="-91" type="line"/>
      <point x="-564" y="-91" type="line"/>
      <point x="-564" y="-153" type="line"/>
      <point x="-120" y="-153" type="line"/>
    </contour>
  </outline>
</glyph>
<glyph name="maiChattawa-thai.narrow" format="2">
  <anchor x="-184" y="506" name="_top"/>
  <anchor x="-235" y="814" name="top"/>
  <outline>
    <contour>
      <point x="-305" y="606" type="line"/>
      <point x="-237" y="606" type="line"/>
      <point x="-237" y="815" type="line"/>
      <point x="-305" y="815" type="line"/>
    </contour>
    <contour>
      <point x="-357" y="678" type="line"/>
      <point x="-185" y="678" type="line"/>
      <point x="-185" y="740" type="line"/>
      <point x="-357" y="740" type="line"/>
    </contour>
  </outline>
</glyph>
<glyph name="maiChattawa-thai.small" format="2">
  <anchor x="-70" y="742" name="_top"/>
  <anchor x="-70" y="972" name="top"/>
  <outline>
    <contour>
      <point x="-141" y="810" type="line"/>
      <point x="-74" y="810" type="line"/>
      <point x="-74" y="972" type="line"/>
      <point x="-141" y="972" type="line"/>
    </contour>
    <contour>
      <point x="-184" y="861" type="line"/>
      <point x="-30" y="861" type="line"/>
      <point x="-30" y="921" type="line"/>
      <point x="-184" y="921" type="line"/>
    </contour>
  </outline>
</glyph>
<glyph name="maiEk-thai.narrow" format="2">
  <anchor x="-184" y="506" name="_top"/>
  <anchor x="-206" y="814" name="top"/>
  <outline>
    <contour>
      <point x="-284" y="606" type="line"/>
      <point x="-206" y="606" type="line"/>
      <point x="-206" y="815" type="line"/>
      <point x="-284" y="815" type="line"/>
    </contour>
  </outline>
</glyph>
<glyph name="maiEk-thai.small" format="2">
  <anchor x="-70" y="742" name="_top"/>
  <anchor x="-70" y="972" name="top"/>
  <outline>
    <contour>
      <point x="-144" y="810" type="line"/>
      <point x="-70" y="810" type="line"/>
      <point x="-70" y="972" type="line"/>
      <point x="-144" y="972" type="line"/>
    </contour>
  </outline>
</glyph>
<glyph name="maiHanaKat-thai.narrow" format="2">
  <anchor x="-184" y="506" name="_top"/>
  <anchor x="-210" y="701" name="top"/>
  <outline>
    <contour>
      <point x="-297" y="606" type="curve" smooth="yes"/>
      <point x="-184" y="606" type="line"/>
      <point x="-184" y="671" type="line"/>
      <point x="-283" y="671" type="line" smooth="yes"/>
      <point x="-302" y="671"/>
      <point x="-309" y="686"/>
      <point x="-309" y="703" type="curve" smooth="yes"/>
      <point x="-309" y="715"/>
      <point x="-307" y="729"/>
      <point x="-305" y="735" type="curve"/>
      <point x="-369" y="747" type="line"/>
      <point x="-376" y="733"/>
      <point x="-381" y="707"/>
      <point x="-381" y="688" type="curve" smooth="yes"/>
      <point x="-381" y="645"/>
      <point x="-359" y="606"/>
    </contour>
  </outline>
</glyph>
<glyph name="maiTho-thai.narrow" format="2">
  <anchor x="-183" y="506" name="_top"/>
  <anchor x="-222" y="815" name="top"/>
  <outline>
    <contour>
      <point x="-373" y="606" type="line"/>
      <point x="-184" y="606" type="line"/>
      <point x="-184" y="673" type="line"/>
      <point x="-289" y="673" type="line"/>
      <point x="-282" y="658" type="line"/>
      <point x="-257" y="672"/>
      <point x="-249" y="700"/>
      <point x="-249" y="729" type="curve" smooth="yes"/>
      <point x="-249" y="776"/>
      <point x="-273" y="809"/>
      <point x="-312" y="809" type="curve" smooth="yes"/>
      <point x="-329" y="809"/>
      <point x="-357" y="804"/>
      <point x="-377" y="783" type="curve"/>
      <point x="-363" y="730" type="line"/>
      <point x="-356" y="734"/>
      <point x="-346" y="741"/>
      <point x="-337" y="741" type="curve" smooth="yes"/>
      <point x="-324" y="741"/>
      <point x="-317" y="729"/>
      <point x="-317" y="711" type="curve" smooth="yes"/>
      <point x="-317" y="676"/>
      <point x="-350" y="658"/>
      <point x="-373" y="650" type="curve"/>
    </contour>
  </outline>
</glyph>
<glyph name="maiTho-thai.small" format="2">
  <anchor x="-71" y="742" name="_top"/>
  <anchor x="-71" y="972" name="top"/>
  <outline>
    <contour>
      <point x="-196" y="810" type="line"/>
      <point x="-10" y="810" type="line"/>
      <point x="-10" y="875" type="line"/>
      <point x="-117" y="875" type="line"/>
      <point x="-113" y="857" type="line"/>
      <point x="-95" y="870"/>
      <point x="-91" y="896"/>
      <point x="-91" y="913" type="curve" smooth="yes"/>
      <point x="-91" y="954"/>
      <point x="-114" y="972"/>
      <point x="-145" y="972" type="curve" smooth="yes"/>
      <point x="-159" y="972"/>
      <point x="-185" y="968"/>
      <point x="-203" y="951" type="curve"/>
      <point x="-190" y="907" type="line"/>
      <point x="-184" y="912"/>
      <point x="-175" y="917"/>
      <point x="-168" y="917" type="curve" smooth="yes"/>
      <point x="-158" y="917"/>
      <point x="-151" y="907"/>
      <point x="-151" y="894" type="curve" smooth="yes"/>
      <point x="-151" y="864"/>
      <point x="-180" y="851"/>
      <point x="-196" y="845" type="curve"/>
    </contour>
  </outline>
</glyph>
<glyph name="maiTri-thai.narrow" format="2">
  <anchor x="-174" y="506" name="_top"/>
  <anchor x="-261" y="815" name="top"/>
  <outline>
    <contour>
      <point x="-349" y="601" type="curve" smooth="yes"/>
      <point x="-335" y="601"/>
      <point x="-321" y="605"/>
      <point x="-314" y="611" type="curve"/>
      <point x="-321" y="656" type="line"/>
      <point x="-328" y="652"/>
      <point x="-334" y="651"/>
      <point x="-338" y="651" type="curve" smooth="yes"/>
      <point x="-357" y="651"/>
      <point x="-366" y="676"/>
      <point x="-366" y="701" type="curve" smooth="yes"/>
      <point x="-366" y="731"/>
      <point x="-355" y="748"/>
      <point x="-343" y="751" type="curve"/>
      <point x="-318" y="721" type="line"/>
      <point x="-314" y="721" type="line"/>
      <point x="-290" y="751" type="line"/>
      <point x="-279" y="749"/>
      <point x="-266" y="733"/>
      <point x="-266" y="700" type="curve" smooth="yes"/>
      <point x="-266" y="669"/>
      <point x="-277" y="654"/>
      <point x="-292" y="646" type="curve"/>
      <point x="-292" y="606" type="line"/>
      <point x="-174" y="606" type="line"/>
      <point x="-174" y="670" type="line"/>
      <point x="-231" y="670" type="line"/>
      <point x="-228" y="651" type="line"/>
      <point x="-217" y="667"/>
      <point x="-210" y="690"/>
      <point x="-210" y="716" type="curve" smooth="yes"/>
      <point x="-210" y="762"/>
      <point x="-232" y="800"/>
      <point x="-284" y="807" type="curve"/>
      <point x="-316" y="771" type="line"/>
      <point x="-351" y="807" type="line"/>
      <point x="-395" y="800"/>
      <point x="-422" y="765"/>
      <point x="-422" y="702" type="curve" smooth="yes"/>
      <point x="-422" y="640"/>
      <point x="-395" y="601"/>
    </contour>
  </outline>
</glyph>
<glyph name="maiTri-thai.small" format="2">
  <anchor x="-70" y="742" name="_top"/>
  <anchor x="-70" y="972" name="top"/>
  <outline>
    <contour>
      <point x="-167" y="806" type="curve" smooth="yes"/>
      <point x="-154" y="806"/>
      <point x="-141" y="810"/>
      <point x="-134" y="815" type="curve"/>
      <point x="-140" y="857" type="line"/>
      <point x="-143" y="855"/>
      <point x="-149" y="854"/>
      <point x="-153" y="854" type="curve" smooth="yes"/>
      <point x="-167" y="854"/>
      <point x="-175" y="868"/>
      <point x="-175" y="887" type="curve" smooth="yes"/>
      <point x="-175" y="906"/>
      <point x="-168" y="920"/>
      <point x="-155" y="922" type="curve"/>
      <point x="-126" y="893" type="line"/>
      <point x="-122" y="893" type="line"/>
      <point x="-94" y="922" type="line"/>
      <point x="-82" y="919"/>
      <point x="-74" y="905"/>
      <point x="-74" y="886" type="curve" smooth="yes"/>
      <point x="-74" y="865"/>
      <point x="-84" y="851"/>
      <point x="-97" y="848" type="curve"/>
      <point x="-97" y="810" type="line"/>
      <point x="20" y="810" type="line"/>
      <point x="20" y="864" type="line"/>
      <point x="-45" y="864" type="line"/>
      <point x="-42" y="851" type="line"/>
      <point x="-31" y="857"/>
      <point x="-22" y="875"/>
      <point x="-22" y="905" type="curve" smooth="yes"/>
      <point x="-22" y="951"/>
      <point x="-54" y="972"/>
      <point x="-92" y="972" type="curve"/>
      <point x="-124" y="937" type="line"/>
      <point x="-158" y="972" type="line"/>
      <point x="-206" y="972"/>
      <point x="-229" y="933"/>
      <point x="-229" y="888" type="curve" smooth="yes"/>
      <point x="-229" y="843"/>
      <point x="-209" y="806"/>
    </contour>
  </outline>
</glyph>
<glyph name="maitaikhu-thai.narrow" format="2">
  <anchor x="-184" y="506" name="_top"/>
  <anchor x="-239" y="794" name="top"/>
  <outline>
    <contour>
      <point x="-247" y="591" type="curve" smooth="yes"/>
      <point x="-209" y="591"/>
      <point x="-183" y="622"/>
      <point x="-183" y="688" type="curve" smooth="yes"/>
      <point x="-183" y="701" type="line"/>
      <point x="-237" y="701" type="line"/>
      <point x="-237" y="689" type="line" smooth="yes"/>
      <point x="-237" y="665"/>
      <point x="-246" y="648"/>
      <point x="-261" y="648" type="curve" smooth="yes"/>
      <point x="-277" y="648"/>
      <point x="-287" y="666"/>
      <point x="-288" y="701" type="curve"/>
      <point x="-304" y="701" type="line"/>
      <point x="-332" y="651" type="line"/>
      <point x="-352" y="651"/>
      <point x="-360" y="672"/>
      <point x="-360" y="701" type="curve" smooth="yes"/>
      <point x="-360" y="739"/>
      <point x="-346" y="756"/>
      <point x="-326" y="756" type="curve" smooth="yes"/>
      <point x="-184" y="756" type="line"/>
      <point x="-184" y="815" type="line"/>
      <point x="-338" y="815" type="line" smooth="yes"/>
      <point x="-380" y="815"/>
      <point x="-417" y="779"/>
      <point x="-417" y="704" type="curve" smooth="yes"/>
      <point x="-417" y="632"/>
      <point x="-383" y="594"/>
      <point x="-328" y="594" type="curve"/>
      <point x="-303" y="637" type="line"/>
      <point x="-291" y="605"/>
      <point x="-273" y="591"/>
    </contour>
  </outline>
</glyph>
<glyph name="phinthu-thai.small" format="2">
  <anchor x="-64" y="-76" name="_bottom"/>
  <anchor x="-64" y="-203" name="bottom"/>
  <outline>
    <contour>
      <point x="-104" y="-255" type="curve" smooth="yes"/>
      <point x="-74" y="-255"/>
      <point x="-54" y="-236"/>
      <point x="-54" y="-200" type="curve" smooth="yes"/>
      <point x="-54" y="-163"/>
      <point x="-74" y="-145"/>
      <point x="-104" y="-145" type="curve" smooth="yes"/>
      <point x="-134" y="-145"/>
      <point x="-154" y="-163"/>
      <point x="-154" y="-200" type="curve" smooth="yes"/>
      <point x="-154" y="-236"/>
      <point x="-134" y="-255"/>
    </contour>
  </outline>
</glyph>
<glyph name="ru-thai.short" format="2">
  <advance width="454"/>
  <anchor x="390" y="-76" name="bottom"/>
  <anchor x="383" y="506" name="top"/>
  <outline>
    <contour>
      <point x="308" y="-127" type="line"/>
      <point x="390" y="-127" type="line"/>
      <point x="390" y="94" type="line"/>
      <point x="308" y="94" type="line"/>
    </contour>
    <component base="thoThung-thai"/>
  </outline>
</glyph>
<glyph name="ru_lakkhangyao-thai" format="2">
  <advance width="695"/>
  <outline>
    <contour>
      <point x="308" y="-190" type="line"/>
      <point x="390" y="-190" type="line"/>
      <point x="390" y="335" type="line" smooth="yes"/>
      <point x="390" y="425"/>
      <point x="423" y="457"/>
      <point x="470" y="457" type="curve" smooth="yes"/>
      <point x="515" y="457"/>
      <point x="548" y="427"/>
      <point x="548" y="340" type="curve" smooth="yes"/>
      <point x="548" y="-190" type="line"/>
      <point x="631" y="-190" type="line"/>
      <point x="631" y="348" type="line" smooth="yes"/>
      <point x="631" y="463"/>
      <point x="581" y="527"/>
      <point x="486" y="527" type="curve" smooth="yes"/>
      <point x="422" y="527"/>
      <point x="376" y="494"/>
      <point x="356" y="440" type="curve"/>
      <point x="353" y="440" type="line"/>
      <point x="330" y="494"/>
      <point x="287" y="527"/>
      <point x="219" y="527" type="curve" smooth="yes"/>
      <point x="114" y="527"/>
      <point x="53" y="454"/>
      <point x="53" y="377" type="curve" smooth="yes"/>
      <point x="53" y="346" type="line"/>
      <point x="133" y="306" type="line"/>
      <point x="132" y="303" type="line"/>
      <point x="90" y="290"/>
      <point x="63" y="260"/>
      <point x="63" y="181" type="curve" smooth="yes"/>
      <point x="63" y="89" type="line" smooth="yes"/>
      <point x="63" y="12"/>
      <point x="102" y="-9"/>
      <point x="151" y="-9" type="curve" smooth="yes"/>
      <point x="171" y="-9"/>
      <point x="191" y="-6"/>
      <point x="209" y="4" type="curve"/>
      <point x="199" y="66" type="line"/>
      <point x="192" y="62"/>
      <point x="182" y="59"/>
      <point x="173" y="59" type="curve" smooth="yes"/>
      <point x="153" y="59"/>
      <point x="144" y="70"/>
      <point x="144" y="100" type="curve" smooth="yes"/>
      <point x="144" y="182" type="line" smooth="yes"/>
      <point x="144" y="250"/>
      <point x="168" y="277"/>
      <point x="203" y="277" type="curve"/>
      <point x="210" y="321" type="line"/>
      <point x="138" y="372" type="line"/>
      <point x="138" y="421"/>
      <point x="168" y="457"/>
      <point x="220" y="457" type="curve" smooth="yes"/>
      <point x="271" y="457"/>
      <point x="308" y="424"/>
      <point x="308" y="332" type="curve" smooth="yes"/>
    </contour>
  </outline>
</glyph>
<glyph name="saraI-thai.narrow" format="2">
  <anchor x="-184" y="506" name="_top"/>
  <anchor x="-184" y="683" name="top"/>
  <outline>
    <contour>
      <point x="-438" y="606" type="line"/>
      <point x="-184" y="606" type="line"/>
      <point x="-184" y="673" type="line"/>
      <point x="-383" y="673" type="line"/>
      <point x="-438" y="643" type="line"/>
    </contour>
  </outline>
</glyph>
<glyph name="saraIi-thai.narrow" format="2">
  <anchor x="-184" y="506" name="_top"/>
  <anchor x="-184" y="742" name="top"/>
  <outline>
    <contour>
      <point x="-438" y="606" type="line"/>
      <point x="-184" y="606" type="line"/>
      <point x="-184" y="673" type="line"/>
      <point x="-383" y="673" type="line"/>
      <point x="-438" y="643" type="line"/>
    </contour>
    <contour>
      <point x="-256" y="643" type="line"/>
      <point x="-184" y="643" type="line"/>
      <point x="-184" y="752" type="line"/>
      <point x="-256" y="752" type="line"/>
    </contour>
  </outline>
</glyph>
<glyph name="saraU-thai.small" format="2">
  <anchor x="-64" y="-76" name="_bottom"/>
  <anchor x="-64" y="-211" name="bottom"/>
  <outline>
    <contour>
      <point x="-136" y="-261" type="line"/>
      <point x="-64" y="-261" type="line"/>
      <point x="-64" y="-205" type="line" smooth="yes"/>
      <point x="-64" y="-167"/>
      <point x="-81" y="-144"/>
      <point x="-119" y="-144" type="curve" smooth="yes"/>
      <point x="-136" y="-144"/>
      <point x="-157" y="-146"/>
      <point x="-171" y="-153" type="curve"/>
      <point x="-166" y="-212" type="line"/>
      <point x="-162" y="-210"/>
      <point x="-157" y="-208"/>
      <point x="-151" y="-208" type="curve" smooth="yes"/>
      <point x="-141" y="-208"/>
      <point x="-136" y="-216"/>
      <point x="-136" y="-233" type="curve" smooth="yes"/>
    </contour>
  </outline>
</glyph>
<glyph name="saraUe-thai.narrow" format="2">
  <anchor x="-184" y="506" name="_top"/>
  <anchor x="-184" y="742" name="top"/>
  <outline>
    <contour>
      <point x="-438" y="606" type="line"/>
      <point x="-233" y="606" type="line" smooth="yes"/>
      <point x="-189" y="606"/>
      <point x="-167" y="641"/>
      <point x="-167" y="688" type="curve" smooth="yes"/>
      <point x="-167" y="738"/>
      <point x="-193" y="773"/>
      <point x="-236" y="773" type="curve" smooth="yes"/>
      <point x="-278" y="773"/>
      <point x="-303" y="739"/>
      <point x="-303" y="687" type="curve" smooth="yes"/>
      <point x="-303" y="678"/>
      <point x="-302" y="665"/>
      <point x="-298" y="650" type="curve"/>
      <point x="-285" y="673" type="line"/>
      <point x="-383" y="673" type="line"/>
      <point x="-438" y="643" type="line"/>
    </contour>
    <contour>
      <point x="-235" y="648" type="curve" smooth="yes"/>
      <point x="-256" y="648"/>
      <point x="-266" y="666"/>
      <point x="-266" y="689" type="curve" smooth="yes"/>
      <point x="-266" y="714"/>
      <point x="-255" y="730"/>
      <point x="-237" y="730" type="curve" smooth="yes"/>
      <point x="-217" y="730"/>
      <point x="-205" y="714"/>
      <point x="-205" y="689" type="curve" smooth="yes"/>
      <point x="-205" y="665"/>
      <point x="-216" y="648"/>
    </contour>
  </outline>
</glyph>
<glyph name="saraUee-thai.narrow" format="2">
  <anchor x="-184" y="506" name="_top"/>
  <anchor x="-221" y="742" name="top"/>
  <outline>
    <contour>
      <point x="-438" y="606" type="line"/>
      <point x="-184" y="606" type="line"/>
      <point x="-184" y="673" type="line"/>
      <point x="-383" y="673" type="line"/>
      <point x="-438" y="643" type="line"/>
    </contour>
    <contour>
      <point x="-332" y="657" type="line"/>
      <point x="-278" y="657" type="line"/>
      <point x="-278" y="752" type="line"/>
      <point x="-332" y="752" type="line"/>
    </contour>
    <contour>
      <point x="-238" y="657" type="line"/>
      <point x="-184" y="657" type="line"/>
      <point x="-184" y="752" type="line"/>
      <point x="-238" y="752" type="line"/>
    </contour>
  </outline>
</glyph>
<glyph name="saraUu-thai.small" format="2">
  <anchor x="-64" y="-75" name="_bottom"/>
  <anchor x="-64" y="-211" name="bottom"/>
  <outline>
    <contour>
      <point x="-164" y="-265" type="curve" smooth="yes"/>
      <point x="-97" y="-265"/>
      <point x="-64" y="-243"/>
      <point x="-64" y="-200" type="curve" smooth="yes"/>
      <point x="-64" y="-145" type="line"/>
      <point x="-134" y="-145" type="line"/>
      <point x="-134" y="-184" type="line" smooth="yes"/>
      <point x="-134" y="-204"/>
      <point x="-141" y="-214"/>
      <point x="-166" y="-214" type="curve" smooth="yes"/>
      <point x="-190" y="-214"/>
      <point x="-198" y="-206"/>
      <point x="-198" y="-192" type="curve" smooth="yes"/>
      <point x="-198" y="-183" type="line" smooth="yes"/>
      <point x="-198" y="-161"/>
      <point x="-213" y="-142"/>
      <point x="-250" y="-142" type="curve" smooth="yes"/>
      <point x="-260" y="-142"/>
      <point x="-277" y="-143"/>
      <point x="-289" y="-148" type="curve"/>
      <point x="-285" y="-197" type="line"/>
      <point x="-270" y="-192"/>
      <point x="-262" y="-195"/>
      <point x="-262" y="-207" type="curve" smooth="yes"/>
      <point x="-262" y="-208" type="line" smooth="yes"/>
      <point x="-262" y="-244"/>
      <point x="-232" y="-265"/>
    </contour>
  </outline>
</glyph>
<glyph name="thanthakhat-thai.narrow" format="2">
  <anchor x="-214" y="506" name="_top"/>
  <anchor x="-224" y="684" name="top"/>
  <outline>
    <contour>
      <point x="-344" y="576" type="curve"/>
      <point x="-277" y="588" type="line"/>
      <point x="-280" y="598"/>
      <point x="-282" y="609"/>
      <point x="-282" y="619" type="curve" smooth="yes"/>
      <point x="-282" y="643"/>
      <point x="-271" y="652"/>
      <point x="-252" y="652" type="curve" smooth="yes"/>
      <point x="-184" y="652" type="line"/>
      <point x="-184" y="718" type="line"/>
      <point x="-275" y="718" type="line" smooth="yes"/>
      <point x="-336" y="718"/>
      <point x="-356" y="679"/>
      <point x="-356" y="637" type="curve" smooth="yes"/>
      <point x="-356" y="615"/>
      <point x="-351" y="590"/>
    </contour>
  </outline>
</glyph>
<glyph name="thanthakhat-thai.small" format="2">
  <anchor x="-70" y="742" name="_top"/>
  <anchor x="-70" y="978" name="top"/>
  <outline>
    <contour>
      <point x="-171" y="786" type="curve"/>
      <point x="-108" y="798" type="line"/>
      <point x="-112" y="808"/>
      <point x="-114" y="819"/>
      <point x="-114" y="829" type="curve" smooth="yes"/>
      <point x="-114" y="853"/>
      <point x="-102" y="863"/>
      <point x="-81" y="863" type="curve" smooth="yes"/>
      <point x="-11" y="863" type="line"/>
      <point x="-11" y="928" type="line"/>
      <point x="-94" y="928" type="line" smooth="yes"/>
      <point x="-165" y="928"/>
      <point x="-184" y="889"/>
      <point x="-184" y="848" type="curve" smooth="yes"/>
      <point x="-184" y="825"/>
      <point x="-179" y="800"/>
    </contour>
  </outline>
</glyph>
<glyph name="thoThan-thai.less" format="2">
  <advance width="416"/>
  <anchor x="326" y="0" name="bottom"/>
  <anchor x="361" y="506" name="top"/>
  <outline>
    <contour>
      <point x="102" y="0" type="line"/>
      <point x="176" y="0" type="line" smooth="yes"/>
      <point x="306" y="0"/>
      <point x="356" y="94"/>
      <point x="356" y="259" type="curve" smooth="yes"/>
      <point x="356" y="354"/>
      <point x="336" y="425"/>
      <point x="295" y="465" type="curve"/>
      <point x="276" y="507"/>
      <point x="232" y="527"/>
      <point x="172" y="527" type="curve" smooth="yes"/>
      <point x="114" y="527"/>
      <point x="65" y="510"/>
      <point x="36" y="487" type="curve"/>
      <point x="36" y="409" type="line"/>
      <point x="71" y="442"/>
      <point x="111" y="457"/>
      <point x="158" y="457" type="curve" smooth="yes"/>
      <point x="238" y="457"/>
      <point x="272" y="401"/>
      <point x="272" y="261" type="curve" smooth="yes"/>
      <point x="272" y="120"/>
      <point x="242" y="68"/>
      <point x="186" y="68" type="curve" smooth="yes"/>
      <point x="179" y="68" type="line"/>
      <point x="179" y="296" type="line"/>
      <point x="55" y="296" type="line"/>
      <point x="55" y="231" type="line"/>
      <point x="102" y="231" type="line"/>
    </contour>
    <contour>
      <point x="301" y="445" type="line"/>
      <point x="353" y="456"/>
      <point x="383" y="492"/>
      <point x="383" y="551" type="curve"/>
      <point x="308" y="551" type="line"/>
      <point x="307" y="514"/>
      <point x="284" y="494"/>
      <point x="256" y="489" type="curve"/>
    </contour>
  </outline>
</glyph>
<glyph name="toPatak-thai.short" format="2">
  <advance width="459"/>
  <anchor x="395" y="-76" name="bottom"/>
  <anchor x="382" y="506" name="top"/>
  <outline>
    <contour>
      <point x="59" y="-127" type="line"/>
      <point x="131" y="-127" type="line"/>
      <point x="131" y="-121" type="line" smooth="yes"/>
      <point x="131" y="-102"/>
      <point x="139" y="-84"/>
      <point x="162" y="-84" type="curve" smooth="yes"/>
      <point x="182" y="-84"/>
      <point x="199" y="-98"/>
      <point x="205" y="-127" type="curve"/>
      <point x="232" y="-127" type="line"/>
      <point x="272" y="-78" type="line"/>
      <point x="322" y="-127" type="line"/>
      <point x="395" y="-127" type="line"/>
      <point x="395" y="349" type="line" smooth="yes"/>
      <point x="395" y="474"/>
      <point x="322" y="527"/>
      <point x="228" y="527" type="curve" smooth="yes"/>
      <point x="117" y="527"/>
      <point x="58" y="454"/>
      <point x="58" y="377" type="curve" smooth="yes"/>
      <point x="58" y="346" type="line"/>
      <point x="138" y="306" type="line"/>
      <point x="137" y="303" type="line"/>
      <point x="98" y="290"/>
      <point x="76" y="261"/>
      <point x="76" y="183" type="curve" smooth="yes"/>
      <point x="76" y="96" type="line" smooth="yes"/>
      <point x="76" y="70"/>
      <point x="70" y="58"/>
      <point x="55" y="58" type="curve" smooth="yes"/>
      <point x="47" y="58"/>
      <point x="40" y="61"/>
      <point x="34" y="64" type="curve"/>
      <point x="25" y="5" type="line"/>
      <point x="42" y="-5"/>
      <point x="60" y="-9"/>
      <point x="80" y="-9" type="curve" smooth="yes"/>
      <point x="125" y="-9"/>
      <point x="158" y="12"/>
      <point x="158" y="89" type="curve" smooth="yes"/>
      <point x="158" y="180" type="line" smooth="yes"/>
      <point x="158" y="248"/>
      <point x="177" y="277"/>
      <point x="208" y="277" type="curve"/>
      <point x="215" y="322" type="line"/>
      <point x="142" y="372" type="line"/>
      <point x="143" y="421"/>
      <point x="172" y="457"/>
      <point x="225" y="457" type="curve" smooth="yes"/>
      <point x="276" y="457"/>
      <point x="312" y="424"/>
      <point x="312" y="340" type="curve" smooth="yes"/>
      <point x="312" y="-75" type="line"/>
      <point x="330" y="-70" type="line"/>
      <point x="269" y="-17" type="line"/>
      <point x="221" y="-71" type="line"/>
      <point x="208" y="-40"/>
      <point x="186" y="-19"/>
      <point x="144" y="-19" type="curve" smooth="yes"/>
      <point x="99" y="-19"/>
      <point x="59" y="-43"/>
      <point x="59" y="-100" type="curve" smooth="yes"/>
    </contour>
  </outline>
</glyph>
<glyph name="yoYing-thai.less" format="2">
  <advance width="658"/>
  <anchor x="583" y="0" name="bottom"/>
  <anchor x="594" y="506" name="top"/>
  <outline>
    <contour>
      <point x="442" y="-10" type="curve" smooth="yes"/>
      <point x="546" y="-10"/>
      <point x="594" y="51"/>
      <point x="594" y="179" type="curve" smooth="yes"/>
      <point x="594" y="517" type="line"/>
      <point x="512" y="517" type="line"/>
      <point x="512" y="178" type="line" smooth="yes"/>
      <point x="512" y="93"/>
      <point x="485" y="60"/>
      <point x="442" y="60" type="curve" smooth="yes"/>
      <point x="398" y="60"/>
      <point x="371" y="93"/>
      <point x="371" y="178" type="curve" smooth="yes"/>
      <point x="371" y="350" type="line" smooth="yes"/>
      <point x="371" y="481"/>
      <point x="299" y="527"/>
      <point x="212" y="527" type="curve" smooth="yes"/>
      <point x="113" y="527"/>
      <point x="53" y="460"/>
      <point x="53" y="377" type="curve" smooth="yes"/>
      <point x="53" y="346" type="line"/>
      <point x="133" y="306" type="line"/>
      <point x="132" y="303" type="line"/>
      <point x="90" y="290"/>
      <point x="63" y="260"/>
      <point x="63" y="181" type="curve" smooth="yes"/>
      <point x="63" y="89" type="line" smooth="yes"/>
      <point x="63" y="12"/>
      <point x="102" y="-9"/>
      <point x="151" y="-9" type="curve" smooth="yes"/>
      <point x="171" y="-9"/>
      <point x="191" y="-6"/>
      <point x="209" y="4" type="curve"/>
      <point x="199" y="66" type="line"/>
      <point x="192" y="62"/>
      <point x="182" y="59"/>
      <point x="174" y="59" type="curve" smooth="yes"/>
      <point x="153" y="59"/>
      <point x="144" y="70"/>
      <point x="144" y="100" type="curve" smooth="yes"/>
      <point x="144" y="182" type="line" smooth="yes"/>
      <point x="144" y="250"/>
      <point x="168" y="277"/>
      <point x="203" y="277" type="curve"/>
      <point x="210" y="322" type="line"/>
      <point x="138" y="373" type="line"/>
      <point x="139" y="428"/>
      <point x="168" y="457"/>
      <point x="212" y="457" type="curve" smooth="yes"/>
      <point x="255" y="457"/>
      <point x="290" y="431"/>
      <point x="290" y="341" type="curve" smooth="yes"/>
      <point x="290" y="179" type="line" smooth="yes"/>
      <point x="290" y="51"/>
      <point x="338" y="-10"/>
    </contour>
  </outline>
</glyph>
